<svg width="169" height="31" viewBox="0 0 169 31" fill="none" xmlns="http://www.w3.org/2000/svg">
<path d="M23.9544 22.8247H20.4111V5.07548H32.8066V8.62781H23.9544V12.1801H29.2632V15.7325H23.9544V22.8247Z" fill="#0B1217"/>
<path d="M37.6709 22.8247H34.2757V4.2957H37.6709V22.8247Z" fill="#0B1217"/>
<path d="M49.9675 21.2776C49.6959 21.5251 49.4037 21.7603 49.091 21.9831C48.7864 22.1976 48.4654 22.3874 48.128 22.5524C47.7905 22.7092 47.4407 22.833 47.0786 22.9238C46.7246 23.0228 46.3625 23.0723 45.9921 23.0723C45.1773 23.0723 44.4118 22.9279 43.6958 22.6391C42.9797 22.3503 42.35 21.9418 41.8068 21.4137C41.2718 20.8774 40.8479 20.2296 40.5352 19.4705C40.2306 18.7031 40.0784 17.8449 40.0784 16.8959V9.5685H43.4365V16.8959C43.4365 17.3415 43.5023 17.7417 43.634 18.0966C43.7739 18.4431 43.9591 18.7361 44.1896 18.9754C44.4201 19.2147 44.6876 19.3962 44.9921 19.52C45.3049 19.6437 45.6382 19.7056 45.9921 19.7056C46.3378 19.7056 46.6629 19.6272 46.9675 19.4705C47.2802 19.3054 47.5518 19.0909 47.7823 18.8268C48.0128 18.5628 48.1938 18.2657 48.3255 17.9357C48.4572 17.5973 48.5231 17.2508 48.5231 16.8959V9.5685H51.8935V22.8247H51.0787L49.9675 21.2776Z" fill="#0B1217"/>
<path d="M58.7579 22.8247H55.3875V12.9352H53.7454V9.5685H55.3875V8.93725C55.3875 8.12034 55.5397 7.35293 55.8443 6.63504C56.157 5.91715 56.5809 5.29415 57.1159 4.76605C57.6591 4.22969 58.2888 3.80886 59.0048 3.50355C59.7209 3.18998 60.4864 3.0332 61.3012 3.0332H63.8321V6.39987H61.3012C60.9391 6.39987 60.6016 6.46588 60.2888 6.59791C59.9843 6.72168 59.7168 6.89909 59.4863 7.13014C59.2641 7.35293 59.0871 7.62111 58.9555 7.93467C58.8238 8.23998 58.7579 8.57417 58.7579 8.93725V9.5685H62.8938V12.9352H58.7579V22.8247Z" fill="#0B1217"/>
<path d="M67.894 27.8747H64.4988V9.5685H65.3137L66.6594 11.1652C66.9639 10.8764 67.2973 10.6041 67.6594 10.3483C68.0216 10.0925 68.3961 9.87381 68.7829 9.69227C69.178 9.50248 69.5854 9.35395 70.0052 9.24668C70.4249 9.13941 70.8488 9.08578 71.2768 9.08578C72.2069 9.08578 73.0793 9.25493 73.8942 9.59325C74.7172 9.92332 75.4333 10.3937 76.0424 11.0043C76.6597 11.6149 77.1453 12.3534 77.4992 13.2198C77.8531 14.078 78.0301 15.0311 78.0301 16.079C78.0301 17.1683 77.8531 18.1502 77.4992 19.0249C77.1453 19.8913 76.6597 20.6298 76.0424 21.2404C75.4333 21.8428 74.7172 22.3049 73.8942 22.6267C73.0793 22.9485 72.2069 23.1094 71.2768 23.1094C70.9805 23.1094 70.6842 23.0764 70.3879 23.0104C70.0998 22.9444 69.8117 22.8578 69.5237 22.7505C69.2438 22.635 68.964 22.5071 68.6841 22.3668C68.4125 22.2265 68.1491 22.0821 67.894 21.9336V27.8747ZM74.6473 16.079C74.6473 15.5179 74.5567 15.0146 74.3757 14.569C74.2028 14.1234 73.9641 13.7479 73.6596 13.4426C73.355 13.1291 72.997 12.8898 72.5855 12.7247C72.1739 12.5597 71.7377 12.4772 71.2768 12.4772C70.8159 12.4772 70.3797 12.5597 69.9681 12.7247C69.5648 12.8898 69.2109 13.1291 68.9064 13.4426C68.6018 13.7479 68.359 14.1234 68.1779 14.569C68.0051 15.0146 67.9187 15.5179 67.9187 16.079C67.9187 16.6154 68.0051 17.1064 68.1779 17.552C68.359 17.9975 68.6018 18.3771 68.9064 18.6907C69.2109 19.0042 69.5648 19.2477 69.9681 19.4209C70.3797 19.5942 70.8159 19.6809 71.2768 19.6809C71.7377 19.6809 72.1739 19.5942 72.5855 19.4209C72.997 19.2477 73.355 19.0042 73.6596 18.6907C73.9641 18.3771 74.2028 17.9975 74.3757 17.552C74.5567 17.1064 74.6473 16.6154 74.6473 16.079Z" fill="#0B1217"/>
<path d="M92.7095 22.8247H91.8947L90.586 21.0053C90.265 21.2941 89.9234 21.5664 89.5613 21.8222C89.2074 22.0697 88.8329 22.2884 88.4378 22.4782C88.0427 22.6597 87.6353 22.8041 87.2155 22.9114C86.804 23.0187 86.3842 23.0723 85.9562 23.0723C85.0262 23.0723 84.1496 22.9155 83.3265 22.602C82.5117 22.2884 81.7956 21.8346 81.1783 21.2404C80.5692 20.6381 80.0877 19.9037 79.7338 19.0372C79.3799 18.1708 79.2029 17.1848 79.2029 16.079C79.2029 15.0476 79.3799 14.1028 79.7338 13.2446C80.0877 12.3782 80.5692 11.6355 81.1783 11.0167C81.7956 10.3978 82.5117 9.91919 83.3265 9.58087C84.1496 9.23431 85.0262 9.06102 85.9562 9.06102C86.3842 9.06102 86.8081 9.11466 87.2279 9.22193C87.6476 9.3292 88.0551 9.47773 88.4501 9.66752C88.8452 9.8573 89.2197 10.0801 89.5736 10.3359C89.9358 10.5917 90.2732 10.8681 90.586 11.1652L91.8947 9.59325H92.7095V22.8247ZM89.3144 16.079C89.3144 15.6169 89.2238 15.1714 89.0427 14.7423C88.8699 14.3049 88.6312 13.9212 88.3267 13.5912C88.0221 13.2529 87.6641 12.9847 87.2526 12.7866C86.8493 12.5803 86.4171 12.4772 85.9562 12.4772C85.4953 12.4772 85.0591 12.5556 84.6476 12.7124C84.2442 12.8691 83.8903 13.1002 83.5858 13.4055C83.2895 13.7108 83.0549 14.0904 82.8821 14.5442C82.7092 14.9898 82.6228 15.5014 82.6228 16.079C82.6228 16.6567 82.7092 17.1724 82.8821 17.6262C83.0549 18.0718 83.2895 18.4473 83.5858 18.7526C83.8903 19.0579 84.2442 19.2889 84.6476 19.4457C85.0591 19.6025 85.4953 19.6809 85.9562 19.6809C86.4171 19.6809 86.8493 19.5819 87.2526 19.3838C87.6641 19.1775 88.0221 18.9093 88.3267 18.5793C88.6312 18.241 88.8699 17.8573 89.0427 17.4282C89.2238 16.9908 89.3144 16.5411 89.3144 16.079Z" fill="#0B1217"/>
<path d="M106.846 12.2049L104.377 14.6928C104.253 14.3462 104.084 14.0368 103.87 13.7645C103.656 13.4839 103.414 13.2487 103.142 13.0589C102.879 12.8692 102.59 12.7247 102.278 12.6257C101.965 12.5267 101.644 12.4772 101.315 12.4772C100.854 12.4772 100.418 12.5721 100.006 12.7619C99.6027 12.9517 99.2488 13.2198 98.9443 13.5664C98.648 13.9047 98.4134 14.3091 98.2405 14.7794C98.0677 15.2497 97.9813 15.7696 97.9813 16.339C97.9813 16.8011 98.0677 17.2343 98.2405 17.6386C98.4134 18.0429 98.648 18.3977 98.9443 18.7031C99.2488 19.0084 99.6027 19.2477 100.006 19.4209C100.418 19.5942 100.854 19.6809 101.315 19.6809C101.644 19.6809 101.961 19.6355 102.265 19.5447C102.57 19.454 102.854 19.3261 103.117 19.161C103.389 18.9877 103.628 18.7814 103.833 18.5421C104.047 18.2946 104.22 18.0223 104.352 17.7252L106.821 20.2131C106.508 20.6587 106.146 21.0589 105.735 21.4137C105.331 21.7685 104.891 22.0697 104.414 22.3173C103.944 22.5648 103.446 22.7505 102.92 22.8743C102.401 23.0063 101.866 23.0723 101.315 23.0723C100.385 23.0723 99.5081 22.899 98.685 22.5524C97.8702 22.1976 97.1541 21.7149 96.5368 21.1043C95.9277 20.4937 95.4462 19.7799 95.0923 18.963C94.7384 18.1461 94.5614 17.2714 94.5614 16.339C94.5614 15.324 94.7384 14.3751 95.0923 13.4921C95.4462 12.6092 95.9277 11.8418 96.5368 11.1899C97.1541 10.5298 97.8702 10.01 98.685 9.63038C99.5081 9.25081 100.385 9.06102 101.315 9.06102C101.866 9.06102 102.405 9.13116 102.932 9.27144C103.467 9.41172 103.973 9.61801 104.451 9.89031C104.936 10.1544 105.381 10.4803 105.784 10.8681C106.196 11.256 106.549 11.7015 106.846 12.2049Z" fill="#0B1217"/>
<path d="M111.895 22.8247H108.5V4.2957H111.895V15.98L116.92 9.59325H120.797L116.414 15.1136L120.797 22.8247H116.92L114.241 18.0099L111.895 21.129V22.8247Z" fill="#0B1217"/>
<path d="M123.95 22.1033C123.95 22.2731 123.92 22.4334 123.859 22.5843C123.797 22.7304 123.713 22.8578 123.605 22.9662C123.496 23.0747 123.369 23.1595 123.224 23.2208C123.078 23.2868 122.92 23.3198 122.751 23.3198C122.586 23.3198 122.429 23.2868 122.278 23.2208C122.132 23.1595 122.003 23.0747 121.89 22.9662C121.782 22.8578 121.695 22.7304 121.629 22.5843C121.568 22.4334 121.538 22.2731 121.538 22.1033C121.538 21.9383 121.568 21.7827 121.629 21.6365C121.695 21.4903 121.782 21.363 121.89 21.2546C122.003 21.1461 122.132 21.0613 122.278 21C122.429 20.9339 122.586 20.9009 122.751 20.9009C122.92 20.9009 123.078 20.9339 123.224 21C123.369 21.0613 123.496 21.1461 123.605 21.2546C123.713 21.363 123.797 21.4903 123.859 21.6365C123.92 21.7827 123.95 21.9383 123.95 22.1033Z" fill="#0B1217"/>
<path d="M131.993 16.7563L130.582 18.1779C130.511 17.9799 130.415 17.803 130.293 17.6474C130.17 17.4871 130.032 17.3527 129.876 17.2443C129.726 17.1358 129.561 17.0533 129.383 16.9967C129.204 16.9402 129.02 16.9119 128.832 16.9119C128.569 16.9119 128.32 16.9661 128.084 17.0745C127.854 17.183 127.652 17.3362 127.478 17.5343C127.308 17.7276 127.174 17.9586 127.076 18.2274C126.977 18.4962 126.927 18.7932 126.927 19.1186C126.927 19.3826 126.977 19.6302 127.076 19.8612C127.174 20.0923 127.308 20.295 127.478 20.4695C127.652 20.644 127.854 20.7807 128.084 20.8797C128.32 20.9787 128.569 21.0282 128.832 21.0282C129.02 21.0282 129.201 21.0023 129.375 20.9504C129.549 20.8986 129.712 20.8255 129.862 20.7312C130.017 20.6322 130.154 20.5143 130.271 20.3775C130.394 20.2361 130.492 20.0805 130.568 19.9107L131.979 21.3324C131.8 21.587 131.593 21.8157 131.358 22.0184C131.127 22.2212 130.876 22.3933 130.603 22.5348C130.335 22.6762 130.05 22.7823 129.749 22.853C129.453 22.9285 129.147 22.9662 128.832 22.9662C128.301 22.9662 127.8 22.8672 127.33 22.6691C126.864 22.4664 126.455 22.1905 126.102 21.8416C125.754 21.4927 125.479 21.0848 125.277 20.618C125.074 20.1512 124.973 19.6514 124.973 19.1186C124.973 18.5386 125.074 17.9964 125.277 17.4918C125.479 16.9873 125.754 16.5488 126.102 16.1763C126.455 15.7991 126.864 15.502 127.33 15.2851C127.8 15.0682 128.301 14.9598 128.832 14.9598C129.147 14.9598 129.455 14.9998 129.756 15.08C130.062 15.1602 130.351 15.278 130.624 15.4336C130.902 15.5845 131.156 15.7708 131.386 15.9924C131.621 16.214 131.824 16.4686 131.993 16.7563Z" fill="#0B1217"/>
<path d="M140.127 18.9701C140.127 19.5359 140.026 20.064 139.824 20.5544C139.622 21.04 139.346 21.462 138.998 21.8204C138.65 22.174 138.241 22.4546 137.771 22.6621C137.305 22.8648 136.804 22.9662 136.268 22.9662C135.737 22.9662 135.236 22.8648 134.765 22.6621C134.3 22.4546 133.891 22.174 133.538 21.8204C133.19 21.462 132.915 21.04 132.712 20.5544C132.51 20.064 132.409 19.5359 132.409 18.9701C132.409 18.3948 132.51 17.862 132.712 17.3716C132.915 16.8812 133.19 16.4592 133.538 16.1056C133.891 15.7472 134.3 15.4666 134.765 15.2639C135.236 15.0611 135.737 14.9598 136.268 14.9598C136.804 14.9598 137.305 15.0564 137.771 15.2497C138.241 15.4384 138.65 15.7095 138.998 16.0631C139.346 16.412 139.622 16.8341 139.824 17.3292C140.026 17.8195 140.127 18.3665 140.127 18.9701ZM138.187 18.9701C138.187 18.6589 138.135 18.3783 138.032 18.1284C137.933 17.8738 137.797 17.6569 137.623 17.4777C137.449 17.2938 137.244 17.1547 137.009 17.0604C136.778 16.9614 136.531 16.9119 136.268 16.9119C136.005 16.9119 135.755 16.9614 135.52 17.0604C135.29 17.1547 135.088 17.2938 134.914 17.4777C134.744 17.6569 134.61 17.8738 134.511 18.1284C134.413 18.3783 134.363 18.6589 134.363 18.9701C134.363 19.2624 134.413 19.5335 134.511 19.7834C134.61 20.0333 134.744 20.2502 134.914 20.4341C135.088 20.618 135.29 20.7642 135.52 20.8726C135.755 20.9764 136.005 21.0282 136.268 21.0282C136.531 21.0282 136.778 20.9787 137.009 20.8797C137.244 20.7807 137.449 20.6416 137.623 20.4624C137.797 20.2832 137.933 20.0663 138.032 19.8117C138.135 19.5571 138.187 19.2765 138.187 18.9701Z" fill="#0B1217"/>
<path d="M150.801 22.8247H148.882V18.0152C148.882 17.8832 148.856 17.7582 148.805 17.6404C148.758 17.5225 148.689 17.4187 148.6 17.3292C148.511 17.2396 148.407 17.1712 148.29 17.124C148.172 17.0722 148.047 17.0462 147.916 17.0462C147.784 17.0462 147.659 17.0722 147.542 17.124C147.429 17.1712 147.328 17.2396 147.238 17.3292C147.154 17.4187 147.086 17.5225 147.034 17.6404C146.987 17.7582 146.963 17.8832 146.963 18.0152V22.8247H145.037V18.0152C145.037 17.8832 145.011 17.7582 144.96 17.6404C144.913 17.5225 144.844 17.4187 144.755 17.3292C144.666 17.2396 144.562 17.1712 144.445 17.124C144.327 17.0722 144.202 17.0462 144.071 17.0462C143.939 17.0462 143.814 17.0722 143.697 17.124C143.584 17.1712 143.483 17.2396 143.394 17.3292C143.309 17.4187 143.241 17.5225 143.189 17.6404C143.142 17.7582 143.118 17.8832 143.118 18.0152V22.8247H141.192V15.2497H141.658L142.18 15.8297C142.448 15.6034 142.742 15.4289 143.062 15.3063C143.386 15.179 143.723 15.1154 144.071 15.1154C144.424 15.1154 144.767 15.1814 145.101 15.3134C145.439 15.4454 145.736 15.6741 145.99 15.9995C146.107 15.8391 146.241 15.7024 146.392 15.5892C146.542 15.4761 146.7 15.3841 146.865 15.3134C147.034 15.2427 147.208 15.1932 147.387 15.1649C147.565 15.1319 147.742 15.1154 147.916 15.1154C148.315 15.1154 148.689 15.1908 149.037 15.3417C149.39 15.4926 149.696 15.7 149.955 15.9641C150.218 16.2234 150.425 16.5299 150.575 16.8836C150.726 17.2372 150.801 17.6144 150.801 18.0152V22.8247Z" fill="#0B1217"/>
<path d="M10.8941 30.1003C5.86884 30.4197 3.3562 28.4393 3.3562 24.1589V19.4314C3.3562 18.5583 3.12887 17.9939 2.6742 17.7384C2.21953 17.4829 1.50163 17.387 0.520508 17.4509V13.4581C1.50163 13.5219 2.21953 13.4261 2.6742 13.1706C3.12887 12.915 3.3562 12.3507 3.3562 11.4776V6.75004C3.3562 2.4697 5.86884 0.489236 10.8941 0.808664V4.76958C9.88907 4.66311 9.14724 4.74829 8.66864 5.02513C8.21398 5.30197 7.98664 5.87694 7.98664 6.75004V11.4776C7.98664 13.4155 7.26874 14.7358 5.83295 15.4385C7.26874 16.1626 7.98664 17.4935 7.98664 19.4314V24.1589C7.98664 25.032 8.21398 25.607 8.66864 25.8838C9.14724 26.1607 9.88907 26.2459 10.8941 26.1394V30.1003Z" fill="#9B51E0"/>
<path d="M157.398 30.1003V26.1394C158.471 26.2459 159.251 26.1607 159.737 25.8838C160.248 25.607 160.504 25.032 160.504 24.1589V19.4314C160.504 17.4935 161.271 16.1626 162.805 15.4385C161.271 14.7358 160.504 13.4155 160.504 11.4776V6.75004C160.504 5.87694 160.248 5.30197 159.737 5.02513C159.251 4.74829 158.471 4.66311 157.398 4.76958V0.808664C162.766 0.489236 165.451 2.4697 165.451 6.75004V11.4776C165.451 12.3507 165.694 12.915 166.18 13.1706C166.665 13.4261 167.432 13.5219 168.481 13.4581V17.4509C167.432 17.387 166.665 17.4829 166.18 17.7384C165.694 17.9939 165.451 18.5583 165.451 19.4314V24.1589C165.451 28.4393 162.766 30.4197 157.398 30.1003Z" fill="#9B51E0"/>
</svg>
