<svg width="80" height="80" viewBox="0 0 80 80" fill="none" xmlns="http://www.w3.org/2000/svg">
<path d="M80 40C80 62.0914 62.0914 80 40 80C17.9086 80 0 62.0914 0 40C0 17.9086 17.9086 0 40 0C62.0914 0 80 17.9086 80 40Z" fill="#FFD6F0"/>
<g clip-path="url(#clip0_413_769)">
<path d="M51.8095 24.2549H59.6825V53.7787C59.6825 55.3447 59.0604 56.8466 57.9531 57.954C56.8457 59.0613 55.3438 59.6834 53.7778 59.6834H26.2222C24.6562 59.6834 23.1543 59.0613 22.0469 57.954C20.9396 56.8466 20.3175 55.3447 20.3175 53.7787V20.3184H51.8095V24.2549ZM51.8095 28.1914V53.7787C51.8095 54.3007 52.0169 54.8013 52.386 55.1704C52.7551 55.5396 53.2558 55.7469 53.7778 55.7469C54.2998 55.7469 54.8004 55.5396 55.1695 55.1704C55.5387 54.8013 55.746 54.3007 55.746 53.7787V28.1914H51.8095ZM24.254 24.2549V53.7787C24.254 54.3007 24.4613 54.8013 24.8305 55.1704C25.1996 55.5396 25.7002 55.7469 26.2222 55.7469H48.2076C47.9844 55.1148 47.8712 54.4491 47.873 53.7787V24.2549H24.254ZM28.1905 40.0009H43.9365V43.9374H28.1905V40.0009ZM28.1905 47.8739H43.9365V51.8104H28.1905V47.8739ZM28.1905 28.1914H43.9365V36.0644H28.1905V28.1914Z" fill="#330808"/>
</g>
<defs>
<clipPath id="clip0_413_769">
<rect width="39.3651" height="39.3651" fill="white" transform="translate(20.3175 20.3184)"/>
</clipPath>
</defs>
</svg>
