<svg width="663" height="115" viewBox="0 0 663 115" fill="none" xmlns="http://www.w3.org/2000/svg">
<path d="M94.0038 87.9431H80.0663V17.1514H128.823V31.3196H94.0038V45.4878H114.886V59.656H94.0038V87.9431Z" fill="white"/>
<path d="M147.957 87.9431H134.602V14.0413H147.957V87.9431Z" fill="white"/>
<path d="M196.326 81.7723C195.257 82.7596 194.108 83.6976 192.878 84.5862C191.68 85.4419 190.417 86.1989 189.09 86.8571C187.763 87.4824 186.387 87.9761 184.962 88.3381C183.57 88.733 182.146 88.9305 180.689 88.9305C177.483 88.9305 174.473 88.3545 171.656 87.2026C168.839 86.0508 166.363 84.4217 164.226 82.3153C162.121 80.1761 160.454 77.5926 159.224 74.5648C158.026 71.504 157.427 68.0813 157.427 64.2965V35.0715H170.636V64.2965C170.636 66.0737 170.895 67.6699 171.413 69.0851C171.963 70.4673 172.692 71.6357 173.598 72.5901C174.505 73.5445 175.557 74.2686 176.755 74.7622C177.985 75.2559 179.296 75.5027 180.689 75.5027C182.048 75.5027 183.327 75.1901 184.525 74.5648C185.755 73.9066 186.824 73.0509 187.73 71.9977C188.637 70.9446 189.349 69.7598 189.867 68.4433C190.385 67.094 190.644 65.7117 190.644 64.2965V35.0715H203.902V87.9431H200.697L196.326 81.7723Z" fill="white"/>
<path d="M230.903 87.9431H217.645V48.4992H211.186V35.0715H217.645V32.5538C217.645 29.2956 218.244 26.2348 219.442 23.3716C220.672 20.5083 222.339 18.0235 224.444 15.9172C226.581 13.778 229.057 12.0995 231.874 10.8818C234.691 9.63117 237.701 9.00586 240.907 9.00586H250.862V22.4336H240.907C239.482 22.4336 238.155 22.6969 236.924 23.2235C235.727 23.7171 234.674 24.4247 233.768 25.3462C232.894 26.2348 232.198 27.3044 231.68 28.5551C231.162 29.7728 230.903 31.1057 230.903 32.5538V35.0715H247.171V48.4992H230.903V87.9431Z" fill="white"/>
<path d="M266.839 108.085H253.484V35.0715H256.69L261.983 41.4398C263.181 40.2879 264.492 39.2018 265.917 38.1816C267.341 37.1613 268.814 36.2892 270.336 35.5651C271.89 34.8082 273.492 34.2158 275.143 33.7879C276.795 33.3601 278.462 33.1462 280.145 33.1462C283.804 33.1462 287.236 33.8208 290.441 35.1702C293.678 36.4866 296.495 38.3626 298.891 40.798C301.319 43.2334 303.229 46.179 304.621 49.6346C306.013 53.0574 306.709 56.8586 306.709 61.0383C306.709 65.3826 306.013 69.299 304.621 72.7876C303.229 76.2432 301.319 79.1888 298.891 81.6242C296.495 84.0267 293.678 85.8697 290.441 87.1533C287.236 88.4368 283.804 89.0786 280.145 89.0786C278.98 89.0786 277.814 88.9469 276.649 88.6836C275.516 88.4204 274.383 88.0748 273.25 87.6469C272.149 87.1862 271.048 86.6761 269.947 86.1166C268.879 85.5571 267.843 84.9811 266.839 84.3887V108.085ZM293.403 61.0383C293.403 58.8004 293.047 56.7928 292.335 55.0156C291.655 53.2384 290.716 51.7409 289.518 50.5232C288.32 49.2726 286.912 48.3182 285.293 47.6599C283.674 47.0017 281.958 46.6726 280.145 46.6726C278.332 46.6726 276.617 47.0017 274.998 47.6599C273.411 48.3182 272.019 49.2726 270.821 50.5232C269.623 51.7409 268.668 53.2384 267.956 55.0156C267.276 56.7928 266.936 58.8004 266.936 61.0383C266.936 63.1775 267.276 65.1357 267.956 66.9129C268.668 68.6901 269.623 70.2041 270.821 71.4547C272.019 72.7053 273.411 73.6762 274.998 74.3673C276.617 75.0584 278.332 75.404 280.145 75.404C281.958 75.404 283.674 75.0584 285.293 74.3673C286.912 73.6762 288.32 72.7053 289.518 71.4547C290.716 70.2041 291.655 68.6901 292.335 66.9129C293.047 65.1357 293.403 63.1775 293.403 61.0383Z" fill="white"/>
<path d="M364.451 87.9431H361.246L356.098 80.6862C354.835 81.8381 353.492 82.9242 352.067 83.9444C350.675 84.9318 349.202 85.8039 347.648 86.5609C346.094 87.2849 344.491 87.8609 342.84 88.2887C341.221 88.7166 339.57 88.9305 337.887 88.9305C334.228 88.9305 330.78 88.3052 327.543 87.0545C324.338 85.8039 321.521 83.9938 319.093 81.6242C316.697 79.2217 314.803 76.2926 313.411 72.8369C312.019 69.3813 311.323 65.4484 311.323 61.0383C311.323 56.9244 312.019 53.1561 313.411 49.7333C314.803 46.2777 316.697 43.3157 319.093 40.8474C321.521 38.379 324.338 36.4702 327.543 35.1208C330.78 33.7386 334.228 33.0474 337.887 33.0474C339.57 33.0474 341.238 33.2613 342.889 33.6892C344.54 34.117 346.142 34.7094 347.696 35.4664C349.25 36.2233 350.724 37.1119 352.116 38.1322C353.54 39.1524 354.868 40.255 356.098 41.4398L361.246 35.1702H364.451V87.9431ZM351.096 61.0383C351.096 59.1953 350.74 57.4181 350.027 55.7067C349.348 53.9624 348.409 52.4321 347.211 51.1156C346.013 49.7663 344.605 48.6966 342.986 47.9068C341.399 47.084 339.7 46.6726 337.887 46.6726C336.074 46.6726 334.358 46.9853 332.739 47.6106C331.153 48.2359 329.761 49.1574 328.563 50.3751C327.397 51.5928 326.474 53.1067 325.795 54.9168C325.115 56.694 324.775 58.7345 324.775 61.0383C324.775 63.3421 325.115 65.399 325.795 67.2091C326.474 68.9863 327.397 70.4838 328.563 71.7015C329.761 72.9192 331.153 73.8407 332.739 74.466C334.358 75.0914 336.074 75.404 337.887 75.404C339.7 75.404 341.399 75.0091 342.986 74.2192C344.605 73.3964 346.013 72.3268 347.211 71.0104C348.409 69.661 349.348 68.1307 350.027 66.4193C350.74 64.675 351.096 62.8813 351.096 61.0383Z" fill="white"/>
<path d="M420.055 45.5866L410.343 55.5092C409.857 54.127 409.193 52.8928 408.352 51.8067C407.51 50.6878 406.555 49.7498 405.486 48.9928C404.45 48.2359 403.317 47.6599 402.087 47.265C400.857 46.8701 399.594 46.6726 398.299 46.6726C396.486 46.6726 394.77 47.0511 393.151 47.808C391.565 48.565 390.173 49.6346 388.975 51.0169C387.809 52.3662 386.887 53.9789 386.207 55.8548C385.527 57.7307 385.187 59.8041 385.187 62.075C385.187 63.918 385.527 65.6459 386.207 67.2585C386.887 68.8712 387.809 70.2863 388.975 71.504C390.173 72.7218 391.565 73.6762 393.151 74.3673C394.77 75.0584 396.486 75.404 398.299 75.404C399.594 75.404 400.84 75.223 402.038 74.861C403.236 74.499 404.353 73.9888 405.389 73.3306C406.458 72.6395 407.396 71.8167 408.206 70.8623C409.048 69.8749 409.727 68.7889 410.245 67.6041L419.958 77.5268C418.728 79.304 417.303 80.9002 415.685 82.3153C414.098 83.7305 412.366 84.9318 410.488 85.9191C408.643 86.9064 406.684 87.6469 404.612 88.1406C402.573 88.6672 400.468 88.9305 398.299 88.9305C394.641 88.9305 391.193 88.2393 387.955 86.8571C384.75 85.4419 381.933 83.5166 379.505 81.0812C377.109 78.6458 375.215 75.7989 373.823 72.5407C372.431 69.2825 371.735 65.794 371.735 62.075C371.735 58.0269 372.431 54.2422 373.823 50.7207C375.215 47.1992 377.109 44.1385 379.505 41.5385C381.933 38.9056 384.75 36.8322 387.955 35.3183C391.193 33.8044 394.641 33.0474 398.299 33.0474C400.468 33.0474 402.589 33.3272 404.661 33.8867C406.765 34.4461 408.756 35.2689 410.634 36.355C412.544 37.4081 414.292 38.7081 415.879 40.255C417.498 41.8018 418.89 43.579 420.055 45.5866Z" fill="white"/>
<path d="M439.917 87.9431H426.563V14.0413H439.917V60.6434L459.683 35.1702H474.931L457.691 57.1877L474.931 87.9431H459.683L449.144 68.7395L439.917 81.1799V87.9431Z" fill="white"/>
<path d="M487.336 85.0658C487.336 85.7428 487.215 86.3822 486.975 86.984C486.734 87.567 486.401 88.0748 485.976 88.5073C485.55 88.9399 485.051 89.2784 484.477 89.5229C483.904 89.7862 483.284 89.9178 482.618 89.9178C481.971 89.9178 481.351 89.7862 480.759 89.5229C480.185 89.2784 479.677 88.9399 479.233 88.5073C478.807 88.0748 478.465 87.567 478.206 86.984C477.965 86.3822 477.845 85.7428 477.845 85.0658C477.845 84.4075 477.965 83.7869 478.206 83.2039C478.465 82.6209 478.807 82.1132 479.233 81.6806C479.677 81.2481 480.185 80.9096 480.759 80.6651C481.351 80.4018 481.971 80.2702 482.618 80.2702C483.284 80.2702 483.904 80.4018 484.477 80.6651C485.051 80.9096 485.55 81.2481 485.976 81.6806C486.401 82.1132 486.734 82.6209 486.975 83.2039C487.215 83.7869 487.336 84.4075 487.336 85.0658Z" fill="white"/>
<path d="M518.971 63.7394L513.421 69.4095C513.143 68.6196 512.764 67.9144 512.283 67.2938C511.802 66.6544 511.256 66.1184 510.646 65.6858C510.054 65.2533 509.406 64.9242 508.703 64.6985C508 64.4728 507.279 64.36 506.539 64.36C505.503 64.36 504.522 64.5763 503.597 65.0088C502.691 65.4413 501.895 66.0526 501.211 66.8424C500.545 67.6135 500.017 68.535 499.629 69.607C499.24 70.6789 499.046 71.8637 499.046 73.1614C499.046 74.2145 499.24 75.2018 499.629 76.1234C500.017 77.0449 500.545 77.8535 501.211 78.5494C501.895 79.2452 502.691 79.7906 503.597 80.1855C504.522 80.5805 505.503 80.7779 506.539 80.7779C507.279 80.7779 507.991 80.6745 508.676 80.4676C509.36 80.2607 509.998 79.9692 510.59 79.5931C511.201 79.1982 511.737 78.728 512.2 78.1826C512.681 77.6185 513.069 76.9978 513.365 76.3208L518.915 81.9909C518.212 83.0065 517.398 83.9186 516.473 84.7273C515.567 85.5359 514.577 86.2224 513.504 86.7865C512.45 87.3507 511.33 87.7739 510.146 88.056C508.981 88.3569 507.778 88.5073 506.539 88.5073C504.448 88.5073 502.478 88.1124 500.628 87.3225C498.796 86.5139 497.187 85.4137 495.799 84.022C494.43 82.6303 493.348 81.0036 492.553 79.1418C491.757 77.2799 491.359 75.2865 491.359 73.1614C491.359 70.8482 491.757 68.6854 492.553 66.6732C493.348 64.6609 494.43 62.9119 495.799 61.4262C497.187 59.9217 498.796 58.7369 500.628 57.8718C502.478 57.0067 504.448 56.5742 506.539 56.5742C507.778 56.5742 508.99 56.734 510.174 57.0537C511.377 57.3734 512.514 57.8436 513.587 58.4642C514.679 59.066 515.678 59.8088 516.584 60.6927C517.509 61.5766 518.305 62.5922 518.971 63.7394Z" fill="white"/>
<path d="M550.967 72.569C550.967 74.8257 550.569 76.932 549.774 78.8879C548.978 80.8249 547.896 82.5081 546.527 83.9374C545.158 85.3479 543.548 86.4668 541.698 87.2943C539.867 88.103 537.897 88.5073 535.788 88.5073C533.697 88.5073 531.727 88.103 529.877 87.2943C528.045 86.4668 526.436 85.3479 525.048 83.9374C523.679 82.5081 522.597 80.8249 521.801 78.8879C521.006 76.932 520.608 74.8257 520.608 72.569C520.608 70.2746 521.006 68.1495 521.801 66.1936C522.597 64.2377 523.679 62.5546 525.048 61.1441C526.436 59.7148 528.045 58.5958 529.877 57.7872C531.727 56.9785 533.697 56.5742 535.788 56.5742C537.897 56.5742 539.867 56.9597 541.698 57.7307C543.548 58.483 545.158 59.5644 546.527 60.9748C547.896 62.3665 548.978 64.0497 549.774 66.0243C550.569 67.9802 550.967 70.1617 550.967 72.569ZM543.336 72.569C543.336 71.3277 543.132 70.2088 542.725 69.212C542.337 68.1965 541.8 67.3314 541.116 66.6167C540.431 65.8833 539.626 65.3285 538.701 64.9524C537.795 64.5575 536.824 64.36 535.788 64.36C534.752 64.36 533.771 64.5575 532.846 64.9524C531.939 65.3285 531.144 65.8833 530.459 66.6167C529.793 67.3314 529.266 68.1965 528.878 69.212C528.489 70.2088 528.295 71.3277 528.295 72.569C528.295 73.7349 528.489 74.8163 528.878 75.813C529.266 76.8098 529.793 77.6749 530.459 78.4083C531.144 79.1418 531.939 79.7248 532.846 80.1573C533.771 80.5711 534.752 80.7779 535.788 80.7779C536.824 80.7779 537.795 80.5805 538.701 80.1855C539.626 79.7906 540.431 79.2358 541.116 78.5212C541.8 77.8065 542.337 76.9414 542.725 75.9259C543.132 74.9103 543.336 73.7914 543.336 72.569Z" fill="white"/>
<path d="M592.953 87.9431H585.405V68.7607C585.405 68.2341 585.303 67.7357 585.1 67.2656C584.915 66.7954 584.646 66.3817 584.295 66.0243C583.943 65.667 583.536 65.3943 583.074 65.2063C582.611 64.9994 582.121 64.896 581.603 64.896C581.085 64.896 580.595 64.9994 580.132 65.2063C579.688 65.3943 579.291 65.667 578.939 66.0243C578.606 66.3817 578.338 66.7954 578.134 67.2656C577.949 67.7357 577.857 68.2341 577.857 68.7607V87.9431H570.281V68.7607C570.281 68.2341 570.179 67.7357 569.976 67.2656C569.791 66.7954 569.523 66.3817 569.171 66.0243C568.82 65.667 568.413 65.3943 567.95 65.2063C567.488 64.9994 566.997 64.896 566.479 64.896C565.961 64.896 565.471 64.9994 565.009 65.2063C564.565 65.3943 564.167 65.667 563.815 66.0243C563.482 66.3817 563.214 66.7954 563.01 67.2656C562.825 67.7357 562.733 68.2341 562.733 68.7607V87.9431H555.157V57.7307H556.989L559.042 60.0439C560.097 59.1412 561.253 58.4454 562.511 57.9564C563.788 57.4487 565.11 57.1948 566.479 57.1948C567.867 57.1948 569.217 57.4581 570.531 57.9846C571.863 58.5112 573.028 59.4233 574.027 60.721C574.49 60.0815 575.017 59.5362 575.609 59.0848C576.201 58.6335 576.821 58.2667 577.468 57.9846C578.134 57.7025 578.819 57.5051 579.522 57.3922C580.225 57.2606 580.919 57.1948 581.603 57.1948C583.176 57.1948 584.646 57.4957 586.015 58.0975C587.403 58.6993 588.605 59.5268 589.623 60.5799C590.659 61.6143 591.473 62.8367 592.065 64.2471C592.657 65.6576 592.953 67.1621 592.953 68.7607V87.9431Z" fill="white"/>
<path d="M40.9485 114.87C21.1119 116.121 11.1935 108.363 11.1935 91.5965V73.078C11.1935 69.6579 10.2962 67.4474 8.50142 66.4464C6.70667 65.4454 3.87287 65.07 0 65.3203V49.6797C3.87287 49.93 6.70667 49.5546 8.50142 48.5536C10.2962 47.5526 11.1935 45.3421 11.1935 41.922V23.4035C11.1935 6.63682 21.1119 -1.12091 40.9485 0.130338V15.6458C36.9812 15.2287 34.0529 15.5624 32.1637 16.6468C30.369 17.7312 29.4716 19.9835 29.4716 23.4035V41.922C29.4716 49.5129 26.6378 54.6847 20.9702 57.4374C26.6378 60.2736 29.4716 65.4871 29.4716 73.078V91.5965C29.4716 95.0165 30.369 97.2688 32.1637 98.3532C34.0529 99.4376 36.9812 99.7713 40.9485 99.3542V114.87Z" fill="white"/>
<path d="M619.252 114.87V99.3542C623.49 99.7713 626.568 99.4376 628.486 98.3532C630.504 97.2688 631.513 95.0165 631.513 91.5965V73.078C631.513 65.4871 634.541 60.2736 640.596 57.4374C634.541 54.6847 631.513 49.5129 631.513 41.922V23.4035C631.513 19.9835 630.504 17.7312 628.486 16.6468C626.568 15.5624 623.49 15.2287 619.252 15.6458V0.130338C640.445 -1.12091 651.041 6.63682 651.041 23.4035V41.922C651.041 45.3421 652 47.5526 653.917 48.5536C655.835 49.5546 658.862 49.93 663 49.6797V65.3203C658.862 65.07 655.835 65.4454 653.917 66.4464C652 67.4474 651.041 69.6579 651.041 73.078V91.5965C651.041 108.363 640.445 116.121 619.252 114.87Z" fill="white"/>
</svg>
