<svg width="341" height="310" viewBox="0 0 341 310" fill="none" xmlns="http://www.w3.org/2000/svg">
<path d="M310.958 272.018L337.274 90.1611C339.277 76.3214 329.681 63.478 315.84 61.4751L60.3751 24.507C46.5347 22.5042 33.6913 32.1003 31.6885 45.9408L5.37215 227.797C2.40527 248.3 16.6206 267.326 37.1237 270.293L268.462 303.77C288.965 306.736 307.991 292.521 310.958 272.018Z" fill="#F97978"/>
<path d="M47.3806 218.171L271.751 250.64C274.014 250.967 276.107 251.813 277.57 252.992C279.033 254.171 279.746 255.585 279.553 256.925C279.359 258.264 278.274 259.418 276.537 260.134C274.8 260.849 272.552 261.067 270.289 260.74L45.919 228.271C43.6561 227.944 41.5628 227.098 40.0997 225.919C38.6366 224.741 37.9236 223.326 38.1174 221.987C38.3112 220.647 39.396 219.493 41.1332 218.777C42.8704 218.062 45.1176 217.844 47.3806 218.171ZM52.5986 182.113L276.969 214.581C279.232 214.909 281.325 215.755 282.788 216.934C284.251 218.112 284.964 219.527 284.771 220.866C284.577 222.205 283.492 223.36 281.755 224.075C280.018 224.791 277.77 225.009 275.507 224.681L51.137 192.213C48.8741 191.885 46.7808 191.039 45.3177 189.861C43.8546 188.682 43.1416 187.268 43.3354 185.928C43.5292 184.589 44.614 183.434 46.3512 182.719C48.0884 182.003 50.3356 181.785 52.5986 182.113Z" fill="#FFD6F0"/>
<path d="M233.568 93.3668C234.036 90.6417 232.206 88.0531 229.48 87.5854C226.755 87.1178 224.167 88.9479 223.699 91.6733L221.98 101.689L205.688 98.8927L203.764 110.105C203.296 112.83 200.708 114.661 197.982 114.193C195.257 113.726 193.427 111.137 193.894 108.412L195.818 97.1992L179.525 94.4033L177.601 105.616C177.134 108.341 174.545 110.171 171.82 109.704C169.095 109.236 167.264 106.648 167.732 103.922L169.656 92.7098L153.363 89.914L151.439 101.126C150.972 103.851 148.383 105.681 145.658 105.214C142.933 104.746 141.102 102.157 141.57 99.4324L143.494 88.22L134.12 86.6114C129.978 85.9008 125.808 86.8455 122.377 89.2715L105.803 100.99L70.473 94.9272C67.7476 94.4595 65.1593 96.2897 64.6916 99.015C64.2238 101.74 66.0541 104.329 68.7794 104.796L104.11 110.859L115.828 127.432C118.254 130.863 121.872 133.144 126.013 133.855L213.874 148.932L212.155 158.947C211.687 161.672 213.517 164.261 216.243 164.728C218.968 165.196 221.557 163.366 222.024 160.64L233.568 93.3668ZM270.942 158.893L279.104 111.323C279.572 108.598 277.742 106.009 275.016 105.542C272.291 105.074 269.703 106.904 269.235 109.629L266 128.48L238.512 123.763L236.819 133.632L264.307 138.349L261.072 157.2C260.604 159.924 262.434 162.513 265.16 162.981C267.885 163.448 270.474 161.618 270.942 158.893Z" fill="#FFD6F0"/>
</svg>
