<svg width="80" height="80" viewBox="0 0 80 80" fill="none" xmlns="http://www.w3.org/2000/svg">
<path d="M80 40C80 62.0914 62.0914 80 40 80C17.9086 80 0 62.0914 0 40C0 17.9086 17.9086 0 40 0C62.0914 0 80 17.9086 80 40Z" fill="#FFD439"/>
<path d="M24.7619 29.4199L55.2381 32.8062V53.1236L24.7619 49.7374V29.4199Z" stroke="#050505" stroke-width="4" stroke-linecap="round" stroke-linejoin="round"/>
<path d="M51.8519 32.429V26.0332L24.7619 29.4194" stroke="#050505" stroke-width="4" stroke-linecap="round" stroke-linejoin="round"/>
<path d="M41.8011 40.1907C42.9721 40.4792 44.1144 38.9453 44.3807 37.8644C44.6026 36.9636 44.4186 35.7717 43.5178 35.5498C42.3468 35.2613 41.2045 36.7952 40.9382 37.8761C40.7163 38.7769 40.9004 39.9688 41.8011 40.1907V40.1907ZM38.3782 39.3474C39.279 39.5693 39.9957 38.5994 40.2176 37.6986C40.5061 36.5276 40.2072 34.6386 39.0362 34.3501C38.1354 34.1281 37.4187 35.0981 37.1968 35.9989C36.8182 37.1477 37.1171 39.0367 38.3782 39.3474V39.3474ZM45.2658 40.0889C44.0948 39.8004 42.8847 41.222 42.5961 42.393C42.3964 43.2037 42.557 44.1032 43.3677 44.3029C44.5387 44.5914 45.7488 43.1698 46.0373 41.9988C46.2371 41.1881 45.9864 40.2664 45.2658 40.0889V40.0889ZM36.7411 40.9505C37.0297 39.7795 36.5284 37.9362 35.4474 37.6699C34.6367 37.4701 34.0767 38.192 33.877 39.0027C33.5885 40.1737 34.0897 42.0171 35.1707 42.2834C35.9814 42.4831 36.5414 41.7612 36.7411 40.9505ZM39.668 41.4805C37.8665 41.0367 34.7242 43.3199 34.236 45.3016C34.014 46.2024 34.578 46.6279 35.2986 46.8055C36.3795 47.0718 37.3678 46.5509 38.3586 46.7951C39.2594 47.017 39.8925 47.9373 40.8834 48.1815C41.604 48.359 42.4591 48.3786 42.7032 47.3877C43.1914 45.406 41.4695 41.9244 39.668 41.4805V41.4805Z" fill="#050505"/>
</svg>
