<svg width="80" height="80" viewBox="0 0 80 80" fill="none" xmlns="http://www.w3.org/2000/svg">
<circle cx="40" cy="40" r="40" fill="#AA55FF"/>
<rect x="20" y="27.6191" width="40.9524" height="31.4286" fill="white"/>
<rect x="29.5238" y="20" width="20.9524" height="5.71429" fill="white"/>
<path d="M27.0993 33.5599L26.7178 33.9414V43.2757V52.6101L27.0993 52.9915L27.4807 53.373H32.5181C38.038 53.373 37.8584 53.3954 38.2175 52.6998C38.4755 52.2062 38.4755 34.3453 38.2175 33.8516C37.8584 33.156 38.038 33.1785 32.5181 33.1785H27.4807L27.0993 33.5599ZM35.9175 43.2757V50.9047H32.5518H29.186V43.2757V35.6467H32.5518H35.9175V43.2757Z" fill="#AA55FF"/>
<path d="M42.1326 34.4239C41.5829 34.5809 41.2463 35.0297 41.2463 35.5907C41.2463 36.1741 41.5829 36.6004 42.1887 36.7687C42.4243 36.836 44.6232 36.8809 47.5627 36.8809C52.8581 36.8809 52.9927 36.8696 53.4752 36.3199C53.621 36.1516 53.6995 35.916 53.6995 35.5907C53.6995 35.0073 53.363 34.5809 52.7571 34.4126C52.2523 34.278 42.615 34.278 42.1326 34.4239Z" fill="#AA55FF"/>
<path d="M41.7743 39.8641C40.8655 40.4924 41.1572 41.8948 42.2343 42.0967C42.9972 42.2426 43.6591 41.6592 43.6591 40.8514C43.6591 40.1783 43.1654 39.6846 42.4923 39.6846C42.2343 39.6846 41.9089 39.7631 41.7743 39.8641Z" fill="#AA55FF"/>
<path d="M46.6992 39.9758C46.2953 40.3124 46.1495 40.8846 46.3626 41.3782C46.5197 41.7709 47.0582 42.1523 47.4509 42.1523C47.8548 42.1523 48.3484 41.8494 48.5391 41.4792C48.8196 40.9295 48.7523 40.4919 48.326 40.0656C47.8323 39.5719 47.2153 39.5383 46.6992 39.9758Z" fill="#AA55FF"/>
<path d="M51.8601 39.8412C51.3216 40.1441 51.1084 41.0529 51.4675 41.5689C51.6582 41.8494 52.1855 42.1523 52.466 42.1523C52.8586 42.1523 53.442 41.7709 53.6103 41.4231C54.1264 40.3461 52.9147 39.2578 51.8601 39.8412Z" fill="#AA55FF"/>
<path d="M41.6166 45.0608C40.6629 45.9134 41.6053 47.4953 42.8282 47.0914C43.6921 46.7997 43.9614 45.7003 43.3331 45.0608C42.8619 44.6008 42.1326 44.6008 41.6166 45.0608Z" fill="#AA55FF"/>
<path d="M46.7999 44.8798C45.9697 45.5305 46.1268 46.7758 47.0692 47.09C48.393 47.5275 49.3018 45.811 48.2135 44.9359C47.933 44.7003 47.0579 44.6666 46.7999 44.8798Z" fill="#AA55FF"/>
<path d="M51.6357 45.0828C50.9625 45.7448 51.2542 46.8218 52.1742 47.1023C53.4083 47.4725 54.2834 45.8457 53.2961 45.0267C52.7913 44.6004 52.0957 44.6229 51.6357 45.0828Z" fill="#AA55FF"/>
<path d="M42.0316 49.783C41.5604 49.9737 41.2463 50.4449 41.2463 50.9835C41.2463 51.4098 41.3024 51.5332 41.6165 51.8137C42.0316 52.1839 42.5701 52.24 43.0974 51.9707C43.5125 51.7576 43.6584 51.4883 43.6584 50.9386C43.6584 50.4113 43.4116 50.0298 42.9179 49.8279C42.5028 49.6484 42.357 49.6484 42.0316 49.783Z" fill="#AA55FF"/>
<path d="M47.0691 49.7826C46.654 49.9509 46.2388 50.5456 46.2388 50.9831C46.2388 51.5441 46.8447 52.1387 47.4056 52.1387C47.9329 52.1387 48.292 51.9592 48.5163 51.5777C48.8978 50.9382 48.6397 50.108 47.9778 49.8275C47.5403 49.648 47.4056 49.648 47.0691 49.7826Z" fill="#AA55FF"/>
<path d="M52.1067 49.7941C51.1867 50.0633 50.996 51.3087 51.7813 51.9369C52.1516 52.2398 52.8808 52.195 53.2959 51.8472C54.3057 50.9945 53.3969 49.4238 52.1067 49.7941Z" fill="#AA55FF"/>
</svg>
