<svg width="80" height="80" viewBox="0 0 80 80" fill="none" xmlns="http://www.w3.org/2000/svg">
<path d="M80 40C80 62.0914 62.0914 80 40 80C17.9086 80 0 62.0914 0 40C0 17.9086 17.9086 0 40 0C62.0914 0 80 17.9086 80 40Z" fill="#AA55FF"/>
<circle cx="40.3587" cy="40.2161" r="8.83333" stroke="white" stroke-width="5"/>
<path d="M35.6523 47.5107L32.4322 44.2906L25.9921 50.7307L29.2122 53.9508L35.6523 47.5107Z" fill="white"/>
<path d="M24.7242 55.3663L30.669 54.871L25.2195 49.4214L24.7242 55.3663Z" fill="white"/>
<path d="M35.6523 32.5792L32.4322 35.7992L25.9921 29.3591L29.2122 26.1391L35.6523 32.5792Z" fill="white"/>
<path d="M24.7242 24.7236L30.669 25.2189L25.2195 30.6684L24.7242 24.7236Z" fill="white"/>
<path d="M44.4395 47.5107L47.6596 44.2906L54.0997 50.7307L50.8796 53.9508L44.4395 47.5107Z" fill="white"/>
<path d="M55.3676 55.3663L49.4227 54.871L54.8723 49.4214L55.3676 55.3663Z" fill="white"/>
<path d="M44.4395 32.5792L47.6596 35.7992L54.0997 29.3591L50.8796 26.1391L44.4395 32.5792Z" fill="white"/>
<path d="M55.3676 24.7236L49.4227 25.2189L54.8723 30.6684L55.3676 24.7236Z" fill="white"/>
<circle cx="19.9997" cy="19.3327" r="4.66667" fill="white"/>
<circle cx="59.3327" cy="19.3327" r="4.66667" fill="white"/>
<circle cx="19.9997" cy="60.6667" r="4.66667" fill="white"/>
<circle cx="59.3327" cy="60.6667" r="4.66667" fill="white"/>
</svg>
