<svg width="389" height="426" viewBox="0 0 389 426" fill="none" xmlns="http://www.w3.org/2000/svg">
<path d="M37.6557 343.806L9.40013 152.612L177.273 123.907L205.529 315.1L37.6557 343.806Z" fill="#91A8DD"/>
<path d="M126.783 350.524L1.52046 400.921L-75.8777 223.702L81.9583 160.199L146.73 308.509L126.783 350.524Z" fill="#B5CEFF"/>
<path d="M163.223 370.058L32.5708 405.066L-17.3702 218.684L147.256 174.572L189.05 330.55L163.223 370.058Z" fill="#E9F2FF"/>
<path d="M120.157 181.834L168.45 362.067L189.053 330.55L147.259 174.572L120.157 181.834Z" fill="#DEEBFF"/>
<path d="M163.225 370.065L155.078 339.66L189.052 330.557L163.225 370.065Z" fill="#91A8DD"/>
<path d="M72.3892 334.499L44.1337 143.305L212.007 114.6L240.263 305.794L72.3892 334.499Z" fill="#91A8DD"/>
<path d="M161.516 341.217L36.254 391.615L-41.1441 214.395L116.692 150.893L181.464 299.202L161.516 341.217Z" fill="#B5CEFF"/>
<path d="M197.956 360.752L67.3044 395.76L17.3633 209.377L181.99 165.265L223.784 321.243L197.956 360.752Z" fill="#E9F2FF"/>
<path d="M154.89 172.527L203.184 352.76L223.787 321.243L181.993 165.265L154.89 172.527Z" fill="#DEEBFF"/>
<path d="M197.958 360.758L189.811 330.354L223.786 321.25L197.958 360.758Z" fill="#91A8DD"/>
<path opacity="0.5" d="M128.153 279.074L139.053 84.469L308.188 83.8136L297.288 278.418L128.153 279.074Z" fill="#91A8DD"/>
<path opacity="0.54" d="M213.319 296.571L81.524 329.808L39.1017 94.3294L205.169 52.4499L240.671 249.515L213.319 296.571Z" fill="#B5CEFF"/>
<path opacity="0.54" d="M245.081 325.993L110.904 339.087L99.7332 145.662L268.803 129.164L278.151 291.035L245.081 325.993Z" fill="#E9F2FF"/>
<path d="M240.973 131.873L251.775 318.915L278.156 291.028L268.807 129.157L240.973 131.873Z" fill="#DEEBFF"/>
<path d="M245.082 325.991L243.259 294.438L278.151 291.033L245.082 325.991Z" fill="#91A8DD"/>
<path d="M137.765 357.466L109.509 166.272L277.382 137.567L305.638 328.76L137.765 357.466Z" fill="#91A8DD"/>
<path opacity="0.5" d="M226.892 364.184L101.63 414.582L24.2315 237.362L182.067 173.859L246.839 322.169L226.892 364.184Z" fill="#B5CEFF"/>
<path d="M263.063 383.82L131.829 418.983L68.7054 183.402L234.065 139.094L286.892 336.245L263.063 383.82Z" fill="#E9F2FF"/>
<path d="M263.211 383.78L252.893 345.271L286.871 336.167L263.211 383.78Z" fill="#91A8DD"/>
<rect x="109.602" y="217.973" width="114.91" height="9.38044" rx="4.69022" transform="rotate(-15.8791 109.602 217.973)" fill="#A4BDEF"/>
<rect x="114.746" y="237.174" width="114.91" height="9.38044" rx="4.69022" transform="rotate(-15.8791 114.746 237.174)" fill="#A4BDEF"/>
<rect x="119.891" y="256.375" width="114.91" height="9.38044" rx="4.69022" transform="rotate(-15.8791 119.891 256.375)" fill="#A4BDEF"/>
<rect x="125.036" y="275.576" width="114.91" height="9.38044" rx="4.69022" transform="rotate(-15.8791 125.036 275.576)" fill="#A4BDEF"/>
<rect x="135.326" y="313.979" width="114.91" height="9.38044" rx="4.69022" transform="rotate(-15.8791 135.326 313.979)" fill="#A4BDEF"/>
<rect x="140.471" y="333.18" width="114.91" height="9.38044" rx="4.69022" transform="rotate(-15.8791 140.471 333.18)" fill="#A4BDEF"/>
<rect x="150.761" y="371.582" width="114.91" height="9.38044" rx="4.69022" transform="rotate(-15.8791 150.761 371.582)" fill="#A4BDEF"/>
</svg>
