<svg width="44" height="44" viewBox="0 0 44 44" fill="none" xmlns="http://www.w3.org/2000/svg">
<circle cx="22" cy="22" r="21" stroke="#FFD439" stroke-width="2"/>
<path d="M17.5502 31.7497C26.6045 31.7497 31.5583 24.2465 31.5583 17.7416C31.5583 17.5307 31.5536 17.3151 31.5442 17.1041C32.5079 16.4072 33.3395 15.544 34 14.5551C33.1025 14.9544 32.1496 15.2151 31.1739 15.3285C32.2013 14.7127 32.9705 13.7452 33.3391 12.6055C32.3726 13.1783 31.3156 13.5824 30.2134 13.8004C29.4708 13.0113 28.489 12.4889 27.4197 12.3138C26.3504 12.1387 25.2532 12.3208 24.2977 12.8319C23.3423 13.3429 22.5818 14.1545 22.1338 15.1411C21.6859 16.1277 21.5754 17.2344 21.8195 18.2901C19.8625 18.1918 17.9479 17.6835 16.2 16.7979C14.452 15.9122 12.9097 14.6692 11.673 13.1493C11.0444 14.233 10.8521 15.5154 11.135 16.7358C11.418 17.9563 12.1551 19.0232 13.1964 19.7197C12.4146 19.6949 11.65 19.4844 10.9656 19.1057V19.1666C10.9649 20.3039 11.3581 21.4063 12.0783 22.2865C12.7985 23.1667 13.8013 23.7703 14.9162 23.9947C14.1921 24.1929 13.432 24.2218 12.6948 24.0791C13.0095 25.0572 13.6216 25.9126 14.4458 26.5261C15.27 27.1395 16.2651 27.4804 17.2923 27.501C15.5484 28.8709 13.3942 29.6139 11.1766 29.6104C10.7833 29.6098 10.3904 29.5857 10 29.5382C12.2529 30.9835 14.8735 31.7511 17.5502 31.7497Z" fill="#FFD439"/>
</svg>
