<svg width="263" height="57" viewBox="0 0 263 57" fill="none" xmlns="http://www.w3.org/2000/svg">
<path d="M59.448 40.4181H55.2313V15.5297H69.9824V20.5109H59.448V25.492H65.7657V30.4732H59.448V40.4181Z" fill="#0B1217"/>
<path d="M75.7712 40.4181H71.7308V14.4363H75.7712V40.4181Z" fill="#0B1217"/>
<path d="M90.4048 38.2486C90.0816 38.5958 89.7338 38.9255 89.3616 39.2379C88.9992 39.5388 88.6172 39.8049 88.2156 40.0363C87.814 40.2561 87.3978 40.4297 86.9668 40.557C86.5456 40.6958 86.1146 40.7653 85.6739 40.7653C84.7042 40.7653 83.7932 40.5628 82.9411 40.1578C82.0889 39.7528 81.3396 39.1801 80.6931 38.4396C80.0565 37.6875 79.552 36.7792 79.1798 35.7147C78.8174 34.6386 78.6362 33.4353 78.6362 32.1046V21.8299H82.6325V32.1046C82.6325 32.7295 82.7109 33.2906 82.8676 33.7882C83.0341 34.2741 83.2545 34.6849 83.5288 35.0204C83.803 35.356 84.1214 35.6105 84.4838 35.7841C84.856 35.9577 85.2527 36.0444 85.6739 36.0444C86.0852 36.0444 86.4721 35.9345 86.8345 35.7147C87.2068 35.4833 87.53 35.1824 87.8042 34.8122C88.0785 34.4419 88.294 34.0254 88.4507 33.5625C88.6074 33.0881 88.6858 32.6022 88.6858 32.1046V21.8299H92.6968V40.4181H91.7271L90.4048 38.2486Z" fill="#0B1217"/>
<path d="M100.866 40.4181H96.8547V26.5508H94.9006V21.8299H96.8547V20.9448C96.8547 19.7993 97.0359 18.7232 97.3983 17.7166C97.7705 16.7099 98.275 15.8364 98.9116 15.0958C99.5581 14.3438 100.307 13.7537 101.16 13.3255C102.012 12.8859 102.923 12.666 103.892 12.666H106.904V17.3868H103.892C103.461 17.3868 103.06 17.4794 102.688 17.6645C102.325 17.8381 102.007 18.0868 101.733 18.4108C101.468 18.7232 101.258 19.0993 101.101 19.539C100.944 19.9671 100.866 20.4357 100.866 20.9448V21.8299H105.788V26.5508H100.866V40.4181Z" fill="#0B1217"/>
<path d="M111.738 47.4993H107.698V21.8299H108.667L110.269 24.0689C110.631 23.6639 111.028 23.2821 111.459 22.9234C111.89 22.5647 112.336 22.2581 112.796 22.0035C113.266 21.7374 113.751 21.5291 114.25 21.3787C114.75 21.2283 115.254 21.1531 115.764 21.1531C116.871 21.1531 117.909 21.3903 118.879 21.8647C119.858 22.3275 120.71 22.987 121.435 23.8432C122.17 24.6995 122.748 25.735 123.169 26.9499C123.59 28.1533 123.8 29.4897 123.8 30.9592C123.8 32.4865 123.59 33.8634 123.169 35.0899C122.748 36.3048 122.17 37.3403 121.435 38.1966C120.71 39.0412 119.858 39.6892 118.879 40.1404C117.909 40.5917 116.871 40.8173 115.764 40.8173C115.411 40.8173 115.059 40.771 114.706 40.6785C114.363 40.5859 114.02 40.4644 113.677 40.314C113.344 40.152 113.011 39.9727 112.678 39.776C112.355 39.5793 112.042 39.3768 111.738 39.1685V47.4993ZM119.775 30.9592C119.775 30.1724 119.667 29.4665 119.452 28.8417C119.246 28.2169 118.962 27.6905 118.599 27.2623C118.237 26.8227 117.811 26.4871 117.321 26.2557C116.831 26.0243 116.312 25.9086 115.764 25.9086C115.215 25.9086 114.696 26.0243 114.206 26.2557C113.726 26.4871 113.305 26.8227 112.943 27.2623C112.58 27.6905 112.291 28.2169 112.076 28.8417C111.87 29.4665 111.767 30.1724 111.767 30.9592C111.767 31.7112 111.87 32.3997 112.076 33.0245C112.291 33.6493 112.58 34.1816 112.943 34.6213C113.305 35.0609 113.726 35.4023 114.206 35.6453C114.696 35.8882 115.215 36.0097 115.764 36.0097C116.312 36.0097 116.831 35.8882 117.321 35.6453C117.811 35.4023 118.237 35.0609 118.599 34.6213C118.962 34.1816 119.246 33.6493 119.452 33.0245C119.667 32.3997 119.775 31.7112 119.775 30.9592Z" fill="#0B1217"/>
<path d="M141.27 40.4181H140.3L138.743 37.8668C138.361 38.2718 137.954 38.6536 137.523 39.0123C137.102 39.3594 136.656 39.666 136.186 39.9322C135.716 40.1867 135.231 40.3892 134.732 40.5396C134.242 40.69 133.742 40.7653 133.233 40.7653C132.126 40.7653 131.083 40.5454 130.103 40.1057C129.134 39.666 128.282 39.0297 127.547 38.1966C126.822 37.3519 126.249 36.3221 125.828 35.1072C125.407 33.8923 125.196 32.5096 125.196 30.9592C125.196 29.5128 125.407 28.188 125.828 26.9847C126.249 25.7697 126.822 24.7284 127.547 23.8606C128.282 22.9928 129.134 22.3217 130.103 21.8473C131.083 21.3613 132.126 21.1183 133.233 21.1183C133.742 21.1183 134.247 21.1936 134.746 21.344C135.246 21.4944 135.731 21.7027 136.201 21.9688C136.671 22.2349 137.117 22.5473 137.538 22.906C137.969 23.2647 138.37 23.6523 138.743 24.0689L140.3 21.8647H141.27V40.4181ZM137.229 30.9592C137.229 30.3112 137.122 29.6864 136.906 29.0847C136.7 28.4715 136.416 27.9334 136.054 27.4706C135.691 26.9962 135.265 26.6202 134.776 26.3425C134.296 26.0532 133.781 25.9086 133.233 25.9086C132.684 25.9086 132.165 26.0185 131.676 26.2383C131.196 26.4582 130.774 26.7822 130.412 27.2103C130.059 27.6384 129.78 28.1706 129.575 28.807C129.369 29.4318 129.266 30.1492 129.266 30.9592C129.266 31.7691 129.369 32.4923 129.575 33.1286C129.78 33.7535 130.059 34.2799 130.412 34.708C130.774 35.1361 131.196 35.4601 131.676 35.68C132.165 35.8998 132.684 36.0097 133.233 36.0097C133.781 36.0097 134.296 35.8709 134.776 35.5932C135.265 35.3039 135.691 34.9279 136.054 34.4651C136.416 33.9907 136.7 33.4526 136.906 32.851C137.122 32.2377 137.229 31.6071 137.229 30.9592Z" fill="#0B1217"/>
<path d="M158.092 25.5268L155.154 29.0153C155.007 28.5293 154.806 28.0954 154.552 27.7136C154.297 27.3202 154.008 26.9904 153.685 26.7243C153.371 26.4582 153.028 26.2557 152.656 26.1169C152.284 25.978 151.902 25.9086 151.51 25.9086C150.962 25.9086 150.443 26.0416 149.953 26.3078C149.473 26.5739 149.052 26.9499 148.689 27.4359C148.337 27.9103 148.058 28.4773 147.852 29.1368C147.646 29.7963 147.543 30.5253 147.543 31.3236C147.543 31.9716 147.646 32.579 147.852 33.146C148.058 33.713 148.337 34.2105 148.689 34.6386C149.052 35.0667 149.473 35.4023 149.953 35.6453C150.443 35.8882 150.962 36.0097 151.51 36.0097C151.902 36.0097 152.279 35.9461 152.642 35.8188C153.004 35.6915 153.342 35.5122 153.655 35.2808C153.979 35.0378 154.263 34.7485 154.507 34.413C154.762 34.0659 154.968 33.684 155.125 33.2675L158.063 36.756C157.691 37.3808 157.26 37.942 156.77 38.4396C156.29 38.9371 155.766 39.3594 155.198 39.7065C154.64 40.0537 154.047 40.314 153.42 40.4876C152.803 40.6727 152.166 40.7653 151.51 40.7653C150.403 40.7653 149.36 40.5223 148.381 40.0363C147.411 39.5388 146.559 38.8619 145.824 38.0057C145.099 37.1494 144.526 36.1486 144.105 35.0031C143.684 33.8576 143.474 32.6311 143.474 31.3236C143.474 29.9004 143.684 28.5698 144.105 27.3318C144.526 26.0937 145.099 25.0176 145.824 24.1036C146.559 23.1779 147.411 22.449 148.381 21.9167C149.36 21.3845 150.403 21.1183 151.51 21.1183C152.166 21.1183 152.808 21.2167 153.435 21.4134C154.072 21.6101 154.674 21.8994 155.242 22.2812C155.82 22.6515 156.349 23.1085 156.829 23.6523C157.319 24.1961 157.74 24.8209 158.092 25.5268Z" fill="#0B1217"/>
<path d="M164.102 40.4181H160.061V14.4363H164.102V30.8203L170.081 21.8647H174.695L169.479 29.6054L174.695 40.4181H170.081L166.893 33.6667L164.102 38.0404V40.4181Z" fill="#0B1217"/>
<path d="M178.448 39.4065C178.448 39.6446 178.411 39.8694 178.338 40.0809C178.266 40.2859 178.165 40.4644 178.036 40.6165C177.907 40.7686 177.756 40.8876 177.583 40.9735C177.409 41.0661 177.222 41.1124 177.02 41.1124C176.824 41.1124 176.637 41.0661 176.458 40.9735C176.284 40.8876 176.13 40.7686 175.996 40.6165C175.867 40.4644 175.764 40.2859 175.685 40.0809C175.613 39.8694 175.576 39.6446 175.576 39.4065C175.576 39.1751 175.613 38.9569 175.685 38.752C175.764 38.547 175.867 38.3685 175.996 38.2164C176.13 38.0643 176.284 37.9453 176.458 37.8594C176.637 37.7668 176.824 37.7205 177.02 37.7205C177.222 37.7205 177.409 37.7668 177.583 37.8594C177.756 37.9453 177.907 38.0643 178.036 38.2164C178.165 38.3685 178.266 38.547 178.338 38.752C178.411 38.9569 178.448 39.1751 178.448 39.4065Z" fill="#0B1217"/>
<path d="M188.019 31.9088L186.339 33.9022C186.256 33.6245 186.141 33.3766 185.995 33.1584C185.85 32.9336 185.685 32.7452 185.5 32.5931C185.321 32.441 185.125 32.3253 184.912 32.246C184.7 32.1666 184.481 32.127 184.257 32.127C183.944 32.127 183.647 32.203 183.367 32.3551C183.093 32.5071 182.852 32.722 182.645 32.9997C182.444 33.2708 182.284 33.5948 182.167 33.9716C182.049 34.3485 181.991 34.7651 181.991 35.2213C181.991 35.5915 182.049 35.9387 182.167 36.2626C182.284 36.5866 182.444 36.8709 182.645 37.1155C182.852 37.3602 183.093 37.5519 183.367 37.6908C183.647 37.8296 183.944 37.899 184.257 37.899C184.481 37.899 184.697 37.8627 184.904 37.79C185.111 37.7172 185.304 37.6147 185.483 37.4825C185.668 37.3437 185.83 37.1784 185.97 36.9866C186.116 36.7883 186.233 36.5701 186.323 36.3321L188.002 38.3255C187.789 38.6825 187.543 39.0032 187.263 39.2875C186.989 39.5718 186.689 39.8132 186.365 40.0115C186.046 40.2099 185.707 40.3586 185.349 40.4578C184.996 40.5636 184.632 40.6165 184.257 40.6165C183.625 40.6165 183.029 40.4776 182.469 40.1999C181.915 39.9156 181.428 39.5288 181.008 39.0396C180.594 38.5503 180.267 37.9784 180.026 37.3238C179.785 36.6693 179.665 35.9684 179.665 35.2213C179.665 34.408 179.785 33.6477 180.026 32.9402C180.267 32.2327 180.594 31.6179 181.008 31.0955C181.428 30.5666 181.915 30.15 182.469 29.8459C183.029 29.5418 183.625 29.3897 184.257 29.3897C184.632 29.3897 184.999 29.4459 185.357 29.5583C185.721 29.6707 186.065 29.836 186.39 30.0542C186.72 30.2657 187.022 30.5269 187.297 30.8377C187.576 31.1484 187.817 31.5055 188.019 31.9088Z" fill="#0B1217"/>
<path d="M197.699 35.013C197.699 35.8064 197.578 36.5469 197.338 37.2346C197.097 37.9156 196.77 38.5073 196.355 39.0098C195.941 39.5057 195.454 39.8991 194.895 40.19C194.34 40.4743 193.744 40.6165 193.106 40.6165C192.474 40.6165 191.878 40.4743 191.318 40.19C190.764 39.8991 190.277 39.5057 189.857 39.0098C189.443 38.5073 189.116 37.9156 188.875 37.2346C188.634 36.5469 188.514 35.8064 188.514 35.013C188.514 34.2064 188.634 33.4592 188.875 32.7716C189.116 32.084 189.443 31.4922 189.857 30.9963C190.277 30.4939 190.764 30.1005 191.318 29.8161C191.878 29.5318 192.474 29.3897 193.106 29.3897C193.744 29.3897 194.34 29.5252 194.895 29.7963C195.454 30.0608 195.941 30.441 196.355 30.9368C196.77 31.4261 197.097 32.0179 197.338 32.7121C197.578 33.3997 197.699 34.1667 197.699 35.013ZM195.39 35.013C195.39 34.5766 195.328 34.1832 195.205 33.8328C195.088 33.4758 194.925 33.1716 194.718 32.9204C194.511 32.6625 194.268 32.4675 193.988 32.3352C193.714 32.1964 193.42 32.127 193.106 32.127C192.793 32.127 192.496 32.1964 192.216 32.3352C191.942 32.4675 191.701 32.6625 191.494 32.9204C191.293 33.1716 191.133 33.4758 191.016 33.8328C190.898 34.1832 190.84 34.5766 190.84 35.013C190.84 35.4229 190.898 35.8031 191.016 36.1535C191.133 36.504 191.293 36.8081 191.494 37.066C191.701 37.3238 191.942 37.5288 192.216 37.6809C192.496 37.8263 192.793 37.899 193.106 37.899C193.42 37.899 193.714 37.8296 193.988 37.6908C194.268 37.5519 194.511 37.3569 194.718 37.1056C194.925 36.8544 195.088 36.5502 195.205 36.1932C195.328 35.8362 195.39 35.4428 195.39 35.013Z" fill="#0B1217"/>
<path d="M210.401 40.4181H208.118V33.6741C208.118 33.489 208.087 33.3138 208.025 33.1485C207.969 32.9832 207.888 32.8377 207.782 32.7121C207.676 32.5865 207.552 32.4906 207.412 32.4245C207.273 32.3518 207.124 32.3154 206.968 32.3154C206.811 32.3154 206.662 32.3518 206.523 32.4245C206.388 32.4906 206.268 32.5865 206.162 32.7121C206.061 32.8377 205.98 32.9832 205.918 33.1485C205.862 33.3138 205.834 33.489 205.834 33.6741V40.4181H203.542V33.6741C203.542 33.489 203.511 33.3138 203.45 33.1485C203.394 32.9832 203.313 32.8377 203.206 32.7121C203.1 32.5865 202.977 32.4906 202.837 32.4245C202.697 32.3518 202.549 32.3154 202.392 32.3154C202.235 32.3154 202.087 32.3518 201.947 32.4245C201.813 32.4906 201.692 32.5865 201.586 32.7121C201.485 32.8377 201.404 32.9832 201.342 33.1485C201.286 33.3138 201.258 33.489 201.258 33.6741V40.4181H198.966V29.7963H199.521L200.142 30.6096C200.461 30.2922 200.811 30.0476 201.191 29.8757C201.578 29.6971 201.978 29.6079 202.392 29.6079C202.812 29.6079 203.22 29.7004 203.618 29.8856C204.021 30.0707 204.373 30.3914 204.676 30.8476C204.815 30.6228 204.975 30.431 205.154 30.2724C205.333 30.1137 205.521 29.9847 205.717 29.8856C205.918 29.7864 206.125 29.717 206.338 29.6773C206.551 29.631 206.76 29.6079 206.968 29.6079C207.443 29.6079 207.888 29.7137 208.302 29.9252C208.722 30.1368 209.086 30.4277 209.394 30.798C209.707 31.1616 209.954 31.5914 210.133 32.0873C210.312 32.5832 210.401 33.1121 210.401 33.6741V40.4181Z" fill="#0B1217"/>
<path d="M43.9057 50.62C37.9254 51.0679 34.9352 48.2909 34.9352 42.2889V35.6598C34.9352 34.4355 34.6647 33.6442 34.1236 33.2859C33.5825 32.9276 32.7282 32.7932 31.5606 32.8828V27.2839C32.7282 27.3735 33.5825 27.2391 34.1236 26.8808C34.6647 26.5224 34.9352 25.7311 34.9352 24.5069V17.8778C34.9352 11.8758 37.9254 9.09875 43.9057 9.54666V15.1007C42.7096 14.9514 41.8268 15.0709 41.2573 15.4591C40.7162 15.8473 40.4456 16.6535 40.4456 17.8778V24.5069C40.4456 27.2242 39.5913 29.0755 37.8827 30.0609C39.5913 31.0762 40.4456 32.9425 40.4456 35.6598V42.2889C40.4456 43.5132 40.7162 44.3194 41.2573 44.7076C41.8268 45.0958 42.7096 45.2152 43.9057 45.0659V50.62Z" fill="#9B51E0"/>
<path d="M218.251 50.62V45.0659C219.529 45.2152 220.457 45.0958 221.035 44.7076C221.644 44.3194 221.948 43.5132 221.948 42.2889V35.6598C221.948 32.9425 222.861 31.0762 224.686 30.0609C222.861 29.0755 221.948 27.2242 221.948 24.5069V17.8778C221.948 16.6535 221.644 15.8473 221.035 15.4591C220.457 15.0709 219.529 14.9514 218.251 15.1007V9.54666C224.641 9.09875 227.835 11.8758 227.835 17.8778V24.5069C227.835 25.7311 228.124 26.5224 228.702 26.8808C229.28 27.2391 230.193 27.3735 231.441 27.2839V32.8828C230.193 32.7932 229.28 32.9276 228.702 33.2859C228.124 33.6442 227.835 34.4355 227.835 35.6598V42.2889C227.835 48.2909 224.641 51.0679 218.251 50.62Z" fill="#9B51E0"/>
</svg>
