<svg width="44" height="44" viewBox="0 0 44 44" fill="none" xmlns="http://www.w3.org/2000/svg">
<circle cx="22" cy="22" r="21" stroke="#FFD439" stroke-width="2"/>
<path d="M17.5502 31.7507C26.6045 31.7507 31.5583 24.2474 31.5583 17.7426C31.5583 17.5317 31.5536 17.316 31.5442 17.1051C32.5079 16.4082 33.3395 15.545 34 14.556C33.1025 14.9553 32.1496 15.2161 31.1739 15.3295C32.2013 14.7136 32.9705 13.7462 33.3391 12.6065C32.3726 13.1793 31.3156 13.5833 30.2134 13.8013C29.4708 13.0123 28.489 12.4898 27.4197 12.3148C26.3504 12.1397 25.2532 12.3218 24.2977 12.8328C23.3423 13.3439 22.5818 14.1554 22.1338 15.142C21.6859 16.1287 21.5754 17.2353 21.8195 18.291C19.8625 18.1928 17.9479 17.6844 16.2 16.7988C14.452 15.9132 12.9097 14.6702 11.673 13.1502C11.0444 14.234 10.8521 15.5164 11.135 16.7368C11.418 17.9573 12.1551 19.0242 13.1964 19.7207C12.4146 19.6959 11.65 19.4854 10.9656 19.1067V19.1676C10.9649 20.3049 11.3581 21.4073 12.0783 22.2875C12.7985 23.1677 13.8013 23.7713 14.9162 23.9957C14.1921 24.1939 13.432 24.2227 12.6948 24.0801C13.0095 25.0582 13.6216 25.9136 14.4458 26.5271C15.27 27.1405 16.2651 27.4813 17.2923 27.502C15.5484 28.8718 13.3942 29.6149 11.1766 29.6113C10.7833 29.6107 10.3904 29.5866 10 29.5392C12.2529 30.9845 14.8735 31.7521 17.5502 31.7507Z" fill="#FFD439"/>
</svg>
