<svg width="44" height="44" viewBox="0 0 44 44" fill="none" xmlns="http://www.w3.org/2000/svg">
<circle cx="22" cy="22" r="21" stroke="#FFD439" stroke-width="2"/>
<path d="M33.7609 17.2008C33.7609 17.2008 33.5266 15.5461 32.8047 14.8195C31.8906 13.8633 30.8688 13.8586 30.4 13.8023C27.0438 13.5586 22.0047 13.5586 22.0047 13.5586H21.9953C21.9953 13.5586 16.9563 13.5586 13.6 13.8023C13.1313 13.8586 12.1094 13.8633 11.1953 14.8195C10.4734 15.5461 10.2437 17.2008 10.2437 17.2008C10.2437 17.2008 10 19.1461 10 21.0867V22.9055C10 24.8461 10.2391 26.7914 10.2391 26.7914C10.2391 26.7914 10.4734 28.4461 11.1906 29.1727C12.1047 30.1289 13.3047 30.0961 13.8391 30.1992C15.7609 30.382 22 30.4383 22 30.4383C22 30.4383 27.0438 30.4289 30.4 30.1898C30.8688 30.1336 31.8906 30.1289 32.8047 29.1727C33.5266 28.4461 33.7609 26.7914 33.7609 26.7914C33.7609 26.7914 34 24.8508 34 22.9055V21.0867C34 19.1461 33.7609 17.2008 33.7609 17.2008ZM19.5203 25.1133V18.368L26.0031 21.7523L19.5203 25.1133Z" fill="#FFD439"/>
</svg>
