<svg width="424" height="204" viewBox="0 0 424 204" fill="none" xmlns="http://www.w3.org/2000/svg">
<path d="M388.5 47V25.5L401 0L424 28L388.5 47Z" fill="#FF3737"/>
<path d="M348 32L363 53L359.5 28L348 32Z" fill="#FF3737"/>
<rect x="-290" y="63" width="672" height="113" rx="16" fill="#FF3737"/>
<rect x="35" y="24.998" width="39" height="140" rx="2" fill="#FF3737"/>
<rect x="-10" y="28.2598" width="39" height="176.405" rx="2" transform="rotate(-7.75482 -10 28.2598)" fill="#FF3737"/>
<rect x="74" y="45.998" width="39" height="137" rx="2" fill="#FF3737"/>
<rect x="79" y="12.2285" width="39" height="134" rx="2" transform="rotate(-0.33437 79 12.2285)" fill="#FF3737"/>
<rect x="125.291" y="34.3965" width="39" height="148.814" rx="2" transform="rotate(5.69228 125.291 34.3965)" fill="#FF3737"/>
<path d="M162.225 84.82C167.185 84.82 170.977 86.196 173.601 88.948C176.257 91.7 177.585 95.604 177.585 100.66C177.585 105.716 176.257 109.62 173.601 112.372C170.977 115.124 167.185 116.5 162.225 116.5H148.785V84.82H162.225ZM161.409 110.26C164.097 110.26 166.049 109.46 167.265 107.86C168.513 106.228 169.137 103.828 169.137 100.66C169.137 97.492 168.513 95.108 167.265 93.508C166.049 91.876 164.097 91.06 161.409 91.06H157.041V110.26H161.409ZM185.688 89.716C184.024 89.716 182.808 89.412 182.04 88.804C181.304 88.164 180.936 87.172 180.936 85.828C180.936 84.452 181.304 83.46 182.04 82.852C182.808 82.212 184.024 81.892 185.688 81.892C187.32 81.892 188.52 82.212 189.288 82.852C190.056 83.46 190.44 84.452 190.44 85.828C190.44 87.172 190.056 88.164 189.288 88.804C188.52 89.412 187.32 89.716 185.688 89.716ZM189.768 92.5V116.5H181.608V92.5H189.768ZM204.697 116.98C202.297 116.98 200.057 116.596 197.977 115.828C195.929 115.028 194.233 113.892 192.889 112.42L196.729 107.908C197.529 108.932 198.585 109.796 199.897 110.5C201.241 111.172 202.729 111.508 204.361 111.508C205.353 111.508 206.169 111.364 206.809 111.076C207.449 110.788 207.769 110.34 207.769 109.732C207.769 109.284 207.609 108.932 207.289 108.676C206.969 108.388 206.329 108.148 205.369 107.956L202.009 107.284C199.001 106.676 196.857 105.78 195.577 104.596C194.329 103.38 193.705 101.796 193.705 99.844C193.705 98.532 194.105 97.284 194.905 96.1C195.705 94.884 196.937 93.908 198.601 93.172C200.265 92.404 202.393 92.02 204.985 92.02C207.417 92.02 209.561 92.372 211.417 93.076C213.273 93.78 214.745 94.804 215.833 96.148L211.945 100.564C211.177 99.604 210.185 98.852 208.969 98.308C207.753 97.764 206.537 97.492 205.321 97.492C204.553 97.492 203.897 97.572 203.353 97.732C202.841 97.86 202.457 98.052 202.201 98.308C201.945 98.564 201.817 98.884 201.817 99.268C201.817 99.684 202.009 100.052 202.393 100.372C202.809 100.66 203.561 100.916 204.649 101.14L209.017 102.004C211.481 102.452 213.257 103.268 214.345 104.452C215.433 105.636 215.977 107.06 215.977 108.724C215.977 110.292 215.561 111.7 214.729 112.948C213.897 114.196 212.649 115.188 210.985 115.924C209.321 116.628 207.225 116.98 204.697 116.98ZM219.251 126.58V92.5H226.595L227.027 101.188L226.067 100.18C226.291 98.58 226.787 97.172 227.555 95.956C228.323 94.74 229.315 93.78 230.531 93.076C231.747 92.372 233.139 92.02 234.707 92.02C236.691 92.02 238.419 92.516 239.891 93.508C241.363 94.468 242.499 95.876 243.299 97.732C244.131 99.556 244.547 101.78 244.547 104.404C244.547 107.028 244.131 109.284 243.299 111.172C242.467 113.06 241.299 114.5 239.795 115.492C238.323 116.484 236.595 116.98 234.611 116.98C232.435 116.98 230.675 116.34 229.331 115.06C227.987 113.748 227.091 112.1 226.643 110.116L227.411 108.964V126.58H219.251ZM231.827 110.98C233.235 110.98 234.339 110.468 235.139 109.444C235.939 108.388 236.339 106.74 236.339 104.5C236.339 102.26 235.939 100.628 235.139 99.604C234.371 98.548 233.283 98.02 231.875 98.02C230.979 98.02 230.195 98.276 229.523 98.788C228.851 99.268 228.323 99.988 227.939 100.948C227.587 101.908 227.411 103.092 227.411 104.5C227.411 105.844 227.571 107.012 227.891 108.004C228.243 108.964 228.755 109.7 229.427 110.212C230.099 110.724 230.899 110.98 231.827 110.98ZM260.096 116.98C257.44 116.98 255.136 116.484 253.184 115.492C251.264 114.5 249.776 113.076 248.72 111.22C247.664 109.364 247.136 107.124 247.136 104.5C247.136 101.876 247.664 99.636 248.72 97.78C249.776 95.924 251.248 94.5 253.136 93.508C255.056 92.516 257.248 92.02 259.712 92.02C262.24 92.02 264.384 92.516 266.144 93.508C267.936 94.468 269.296 95.812 270.224 97.54C271.152 99.236 271.616 101.188 271.616 103.396C271.616 103.972 271.6 104.548 271.568 105.124C271.536 105.7 271.488 106.18 271.424 106.564H252.416V102.196H267.824L263.936 103.684C263.936 101.764 263.584 100.292 262.88 99.268C262.208 98.244 261.152 97.732 259.712 97.732C258.688 97.732 257.808 97.972 257.072 98.452C256.368 98.932 255.824 99.684 255.44 100.708C255.088 101.732 254.912 103.044 254.912 104.644C254.912 106.212 255.12 107.492 255.536 108.484C255.952 109.444 256.544 110.148 257.312 110.596C258.08 111.012 259.008 111.22 260.096 111.22C261.312 111.22 262.272 110.98 262.976 110.5C263.712 110.02 264.256 109.348 264.608 108.484L271.136 110.644C270.688 112.02 269.904 113.188 268.784 114.148C267.696 115.076 266.384 115.78 264.848 116.26C263.344 116.74 261.76 116.98 260.096 116.98ZM275.221 116.5V92.5H282.421L282.757 97.684C283.365 95.892 284.261 94.5 285.445 93.508C286.661 92.516 288.197 92.02 290.053 92.02C290.661 92.02 291.173 92.068 291.589 92.164C292.037 92.26 292.389 92.388 292.645 92.548L291.829 99.268C291.509 99.14 291.093 99.044 290.581 98.98C290.101 98.884 289.509 98.836 288.805 98.836C287.845 98.836 286.949 99.044 286.117 99.46C285.285 99.876 284.613 100.5 284.101 101.332C283.621 102.132 283.381 103.156 283.381 104.404V116.5H275.221ZM304.544 116.98C302.144 116.98 299.904 116.596 297.824 115.828C295.776 115.028 294.08 113.892 292.736 112.42L296.576 107.908C297.376 108.932 298.432 109.796 299.744 110.5C301.088 111.172 302.576 111.508 304.208 111.508C305.2 111.508 306.016 111.364 306.656 111.076C307.296 110.788 307.616 110.34 307.616 109.732C307.616 109.284 307.456 108.932 307.136 108.676C306.816 108.388 306.176 108.148 305.216 107.956L301.856 107.284C298.848 106.676 296.704 105.78 295.424 104.596C294.176 103.38 293.552 101.796 293.552 99.844C293.552 98.532 293.952 97.284 294.752 96.1C295.552 94.884 296.784 93.908 298.448 93.172C300.112 92.404 302.24 92.02 304.832 92.02C307.264 92.02 309.408 92.372 311.264 93.076C313.12 93.78 314.592 94.804 315.68 96.148L311.792 100.564C311.024 99.604 310.032 98.852 308.816 98.308C307.6 97.764 306.384 97.492 305.168 97.492C304.4 97.492 303.744 97.572 303.2 97.732C302.688 97.86 302.304 98.052 302.048 98.308C301.792 98.564 301.664 98.884 301.664 99.268C301.664 99.684 301.856 100.052 302.24 100.372C302.656 100.66 303.408 100.916 304.496 101.14L308.864 102.004C311.328 102.452 313.104 103.268 314.192 104.452C315.28 105.636 315.824 107.06 315.824 108.724C315.824 110.292 315.408 111.7 314.576 112.948C313.744 114.196 312.496 115.188 310.832 115.924C309.168 116.628 307.072 116.98 304.544 116.98ZM330.669 116.98C328.013 116.98 325.709 116.484 323.757 115.492C321.837 114.5 320.349 113.076 319.293 111.22C318.237 109.364 317.709 107.124 317.709 104.5C317.709 101.876 318.237 99.636 319.293 97.78C320.349 95.924 321.821 94.5 323.709 93.508C325.629 92.516 327.821 92.02 330.285 92.02C332.813 92.02 334.957 92.516 336.717 93.508C338.509 94.468 339.869 95.812 340.797 97.54C341.725 99.236 342.189 101.188 342.189 103.396C342.189 103.972 342.173 104.548 342.141 105.124C342.109 105.7 342.061 106.18 341.997 106.564H322.989V102.196H338.397L334.509 103.684C334.509 101.764 334.157 100.292 333.453 99.268C332.781 98.244 331.725 97.732 330.285 97.732C329.261 97.732 328.381 97.972 327.645 98.452C326.941 98.932 326.397 99.684 326.013 100.708C325.661 101.732 325.485 103.044 325.485 104.644C325.485 106.212 325.693 107.492 326.109 108.484C326.525 109.444 327.117 110.148 327.885 110.596C328.653 111.012 329.581 111.22 330.669 111.22C331.885 111.22 332.845 110.98 333.549 110.5C334.285 110.02 334.829 109.348 335.181 108.484L341.709 110.644C341.261 112.02 340.477 113.188 339.357 114.148C338.269 115.076 336.957 115.78 335.421 116.26C333.917 116.74 332.333 116.98 330.669 116.98ZM354.626 116.98C352.642 116.98 350.898 116.5 349.394 115.54C347.922 114.548 346.77 113.124 345.938 111.268C345.138 109.412 344.738 107.188 344.738 104.596C344.738 101.908 345.154 99.636 345.986 97.78C346.85 95.924 348.034 94.5 349.538 93.508C351.074 92.516 352.834 92.02 354.818 92.02C356.994 92.02 358.738 92.692 360.05 94.036C361.394 95.348 362.258 97.028 362.642 99.076L361.874 100.084V82.324H370.034V116.5H362.738L362.21 108.34L363.17 109.06C362.978 110.66 362.482 112.052 361.682 113.236C360.914 114.42 359.922 115.348 358.706 116.02C357.522 116.66 356.162 116.98 354.626 116.98ZM357.458 110.98C358.386 110.98 359.17 110.74 359.81 110.26C360.482 109.748 360.994 108.996 361.346 108.004C361.698 107.012 361.874 105.796 361.874 104.356C361.874 103.012 361.698 101.876 361.346 100.948C361.026 99.988 360.53 99.268 359.858 98.788C359.218 98.276 358.434 98.02 357.506 98.02C356.098 98.02 354.978 98.548 354.146 99.604C353.346 100.628 352.946 102.26 352.946 104.5C352.946 106.74 353.346 108.388 354.146 109.444C354.946 110.468 356.05 110.98 357.458 110.98Z" fill="#E9F2FF"/>
<path d="M194.724 133.515C198.49 133.239 201.475 133.919 203.681 135.554C205.916 137.155 207.141 139.423 207.356 142.359C207.592 145.583 206.735 148.116 204.785 149.96C202.834 151.803 199.976 152.863 196.21 153.139L195.476 153.626L189.205 154.086L190.05 165.623L181.96 166.216L179.644 134.62L194.724 133.515ZM194.617 147.817C196.213 147.7 197.386 147.293 198.137 146.597C198.888 145.9 199.212 144.849 199.11 143.445C199.009 142.073 198.536 141.097 197.692 140.517C196.847 139.937 195.627 139.706 194.031 139.823L188.191 140.251L188.777 148.245L194.617 147.817ZM199.578 149.186L210.827 164.1L201.731 164.767L192.627 151.525L199.578 149.186ZM224.822 163.555C222.173 163.75 219.839 163.423 217.82 162.577C215.832 161.728 214.244 160.416 213.055 158.642C211.867 156.869 211.176 154.673 210.984 152.056C210.793 149.439 211.155 147.167 212.073 145.238C212.99 143.31 214.354 141.782 216.165 140.655C218.007 139.525 220.157 138.87 222.614 138.69C225.136 138.505 227.31 138.843 229.138 139.704C230.995 140.53 232.45 141.771 233.502 143.427C234.551 145.051 235.157 146.964 235.318 149.166C235.36 149.74 235.386 150.316 235.397 150.892C235.407 151.469 235.394 151.952 235.358 152.339L216.401 153.729L216.082 149.372L231.449 148.246L227.68 150.014C227.539 148.099 227.081 146.657 226.304 145.687C225.559 144.715 224.468 144.282 223.032 144.387C222.011 144.462 221.151 144.765 220.452 145.298C219.785 145.828 219.297 146.618 218.989 147.667C218.713 148.714 218.633 150.036 218.75 151.631C218.865 153.195 219.166 154.456 219.653 155.415C220.138 156.342 220.78 157.001 221.579 157.392C222.375 157.751 223.316 157.89 224.401 157.811C225.614 157.722 226.554 157.412 227.221 156.882C227.92 156.35 228.413 155.64 228.701 154.752L235.369 156.429C235.023 157.834 234.327 159.057 233.28 160.096C232.262 161.101 231.005 161.899 229.509 162.49C228.044 163.079 226.482 163.434 224.822 163.555ZM249.427 136.725C251.853 136.547 253.889 136.751 255.536 137.336C257.213 137.887 258.54 138.704 259.518 139.787C260.526 140.837 261.189 142.007 261.508 143.299L254.175 146.34C253.851 144.984 253.361 143.993 252.706 143.367C252.08 142.707 251.208 142.418 250.091 142.5C249.07 142.575 248.226 142.877 247.559 143.407C246.921 143.903 246.465 144.675 246.188 145.722C245.91 146.737 245.828 148.026 245.943 149.59C246.057 151.154 246.342 152.416 246.798 153.378C247.251 154.307 247.845 154.969 248.58 155.365C249.312 155.728 250.157 155.875 251.115 155.805C251.913 155.746 252.556 155.555 253.046 155.23C253.565 154.871 253.979 154.391 254.288 153.791C254.597 153.191 254.769 152.473 254.804 151.636L262.3 153.445C262.18 154.865 261.666 156.17 260.758 157.36C259.88 158.515 258.667 159.47 257.118 160.226C255.569 160.981 253.725 161.437 251.587 161.594C248.97 161.785 246.653 161.474 244.636 160.659C242.617 159.813 241.013 158.502 239.824 156.728C238.633 154.923 237.941 152.711 237.749 150.094C237.558 147.477 237.921 145.205 238.838 143.277C239.753 141.316 241.117 139.789 242.93 138.693C244.772 137.563 246.938 136.907 249.427 136.725ZM275.679 134.801C278.201 134.616 280.439 134.949 282.394 135.801C284.379 136.618 285.968 137.929 287.159 139.735C288.38 141.506 289.086 143.701 289.278 146.318C289.469 148.935 289.092 151.224 288.145 153.187C287.227 155.115 285.847 156.644 284.005 157.774C282.192 158.869 280.025 159.509 277.504 159.694C275.047 159.874 272.825 159.556 270.84 158.739C268.853 157.89 267.249 156.579 266.028 154.808C264.837 153.002 264.145 150.791 263.954 148.174C263.762 145.557 264.125 143.284 265.042 141.356C265.989 139.393 267.385 137.863 269.23 136.765C271.072 135.636 273.222 134.981 275.679 134.801ZM276.104 140.593C275.178 140.661 274.397 140.943 273.759 141.439C273.122 141.935 272.664 142.69 272.385 143.705C272.107 144.72 272.025 146.01 272.14 147.574C272.254 149.138 272.523 150.401 272.947 151.365C273.368 152.297 273.931 152.977 274.637 153.407C275.34 153.804 276.154 153.969 277.079 153.902C278.037 153.831 278.834 153.548 279.472 153.052C280.107 152.525 280.565 151.769 280.846 150.786C281.124 149.771 281.206 148.481 281.092 146.918C280.977 145.354 280.708 144.09 280.284 143.126C279.861 142.163 279.297 141.482 278.595 141.084C277.892 140.687 277.061 140.523 276.104 140.593ZM293.775 158.02L292.021 134.084L299.202 133.558L299.916 138.704C300.391 136.872 301.183 135.418 302.291 134.342C303.432 133.264 304.927 132.657 306.778 132.521C307.385 132.477 307.899 132.487 308.321 132.553C308.775 132.616 309.135 132.718 309.402 132.858L309.079 139.62C308.751 139.516 308.329 139.451 307.814 139.424C307.328 139.363 306.734 139.359 306.032 139.41C305.074 139.481 304.196 139.753 303.397 140.229C302.597 140.705 301.973 141.376 301.523 142.244C301.103 143.076 300.938 144.115 301.029 145.36L301.914 157.424L293.775 158.02ZM321.951 156.436C319.972 156.581 318.198 156.23 316.628 155.383C315.087 154.501 313.834 153.165 312.869 151.375C311.935 149.582 311.373 147.393 311.184 144.808C310.988 142.127 311.236 139.831 311.93 137.919C312.656 136.005 313.733 134.498 315.161 133.399C316.62 132.297 318.339 131.674 320.318 131.529C322.488 131.37 324.276 131.913 325.683 133.157C327.119 134.367 328.104 135.98 328.637 137.994L327.944 139.056L326.646 121.343L334.784 120.747L337.283 154.831L330.006 155.365L328.883 147.265L329.893 147.913C329.818 149.523 329.426 150.947 328.714 152.186C328.035 153.423 327.113 154.421 325.95 155.181C324.816 155.905 323.483 156.324 321.951 156.436ZM324.337 150.245C325.262 150.177 326.027 149.881 326.63 149.355C327.262 148.795 327.718 148.008 327.997 146.993C328.275 145.978 328.362 144.752 328.257 143.316C328.158 141.976 327.9 140.856 327.481 139.956C327.092 139.022 326.544 138.34 325.839 137.91C325.163 137.447 324.363 137.249 323.437 137.316C322.033 137.419 320.955 138.028 320.202 139.142C319.479 140.222 319.199 141.878 319.363 144.112C319.527 146.346 320.046 147.961 320.921 148.955C321.794 149.918 322.932 150.348 324.337 150.245ZM352.251 154.215C349.858 154.391 347.596 154.172 345.465 153.558C343.364 152.909 341.59 151.9 340.142 150.531L343.641 145.75C344.514 146.713 345.631 147.497 346.99 148.104C348.38 148.675 349.889 148.902 351.516 148.783C352.506 148.71 353.309 148.507 353.926 148.173C354.543 147.839 354.83 147.369 354.785 146.762C354.753 146.315 354.567 145.976 354.229 145.744C353.889 145.48 353.233 145.288 352.262 145.166L348.862 144.742C345.817 144.355 343.614 143.618 342.25 142.531C340.917 141.41 340.179 139.875 340.036 137.929C339.94 136.62 340.248 135.346 340.959 134.107C341.668 132.836 342.825 131.772 344.431 130.917C346.035 130.029 348.129 129.491 350.714 129.301C353.139 129.123 355.303 129.318 357.206 129.884C359.108 130.45 360.651 131.364 361.835 132.625L358.28 137.313C357.444 136.412 356.399 135.735 355.147 135.281C353.894 134.827 352.662 134.645 351.449 134.734C350.683 134.79 350.035 134.918 349.504 135.117C349.003 135.282 348.634 135.502 348.397 135.776C348.16 136.05 348.056 136.378 348.084 136.761C348.115 137.176 348.333 137.529 348.739 137.82C349.175 138.077 349.944 138.277 351.046 138.421L355.465 138.964C357.955 139.23 359.786 139.914 360.958 141.016C362.129 142.117 362.776 143.497 362.898 145.157C363.012 146.721 362.7 148.155 361.962 149.461C361.223 150.766 360.051 151.847 358.445 152.702C356.837 153.526 354.773 154.031 352.251 154.215Z" fill="#E9F2FF"/>
</svg>
