<svg width="44" height="44" viewBox="0 0 44 44" fill="none" xmlns="http://www.w3.org/2000/svg">
<circle cx="22" cy="22" r="21" stroke="#FFD439" stroke-width="2"/>
<path d="M33.7609 17.1998C33.7609 17.1998 33.5266 15.5451 32.8047 14.8186C31.8906 13.8623 30.8688 13.8576 30.4 13.8014C27.0438 13.5576 22.0047 13.5576 22.0047 13.5576H21.9953C21.9953 13.5576 16.9562 13.5576 13.6 13.8014C13.1313 13.8576 12.1094 13.8623 11.1953 14.8186C10.4734 15.5451 10.2437 17.1998 10.2437 17.1998C10.2437 17.1998 10 19.1451 10 21.0857V22.9045C10 24.8451 10.2391 26.7904 10.2391 26.7904C10.2391 26.7904 10.4734 28.4451 11.1906 29.1717C12.1047 30.1279 13.3047 30.0951 13.8391 30.1982C15.7609 30.3811 22 30.4373 22 30.4373C22 30.4373 27.0438 30.4279 30.4 30.1889C30.8688 30.1326 31.8906 30.1279 32.8047 29.1717C33.5266 28.4451 33.7609 26.7904 33.7609 26.7904C33.7609 26.7904 34 24.8498 34 22.9045V21.0857C34 19.1451 33.7609 17.1998 33.7609 17.1998ZM19.5203 25.1123V18.367L26.0031 21.7514L19.5203 25.1123Z" fill="#FFD439"/>
</svg>
