<svg width="80" height="80" viewBox="0 0 80 80" fill="none" xmlns="http://www.w3.org/2000/svg">
<path fill-rule="evenodd" clip-rule="evenodd" d="M62.8309 72.8486C73.2085 65.6223 80 53.6043 80 40C80 17.9086 62.0914 0 40 0C17.9086 0 0 17.9086 0 40C0 53.6127 6.79998 65.6373 17.1884 72.8621L17.2058 69.9691L17.4469 69.0762C17.9469 67.2369 19.1076 65.3619 20.4826 64.1923C21.5451 63.2905 22.4111 62.8351 24.8129 61.9244L24.8177 61.9226L24.8234 61.9205C26.0329 61.4669 27.0273 61.094 27.0451 61.0851C27.054 61.0851 27.0629 62.5851 27.0629 64.4244V67.7637L26.5004 68.0762C25.8754 68.4333 25.1254 69.1744 24.8486 69.7101C23.5808 72.1923 25.0183 75.0762 27.7772 75.5673C29.304 75.8351 31.0272 75.0137 31.8308 73.6298C32.9647 71.7012 32.2236 69.1119 30.2594 68.0941L29.7415 67.8262V64.853V61.8798L30.2236 62.4512C32.0183 64.5583 34.3665 66.0405 36.9201 66.6566C37.4111 66.7816 38.0094 66.8976 38.2504 66.9333L38.6701 66.9869V74.4423V79.9783C39.1116 79.9927 39.555 80 40 80C40.4516 80 40.9014 79.9925 41.3494 79.9777V74.4512V67.0137L42.1976 66.8619C45.6619 66.2459 48.7333 64.2191 50.6619 61.2816C50.9565 60.8352 51.2244 60.4602 51.2512 60.4602C51.2779 60.4602 52.6797 60.978 54.3583 61.6119C57.6529 62.853 58.394 63.2191 59.5369 64.1923C60.9119 65.3619 62.0726 67.2369 62.5726 69.0762L62.8137 69.9691L62.8309 72.8486ZM35.5006 37.2644C36.5095 36.7644 37.5988 36.434 38.9381 36.2287C39.4024 36.1662 40.706 36.184 41.3042 36.2644C45.1077 36.809 48.2238 39.3358 49.5095 42.934L49.7417 43.5858L49.5363 43.7108C48.6524 44.2912 46.8488 44.9251 45.5988 45.0947C42.4024 45.5412 39.3577 44.5233 36.8756 42.1751L36.0363 41.3805L35.2327 42.1305C34.2238 43.068 33.3845 43.6483 32.3131 44.1662C31.5095 44.5501 30.1435 45.0055 30.0631 44.9162C30.0363 44.8894 30.0899 44.5322 30.1881 44.1215C30.8399 41.1483 32.7952 38.6126 35.5006 37.2644ZM35.6255 45.308C34.2415 46.3615 31.929 47.3705 30.304 47.6473L29.9201 47.7098V51.0312C29.9201 54.6919 30.0094 55.924 30.3397 57.0669C31.7237 61.8615 36.438 64.9598 41.3219 64.2901C45.9469 63.6651 49.5362 59.9598 50.0005 55.3258C50.1076 54.2633 50.1344 46.5312 50.0362 46.5312C50.0005 46.5312 49.6523 46.6651 49.2505 46.8348C45.0183 48.6562 39.9648 48.0223 36.304 45.2276L36.0183 45.0133L35.6255 45.308ZM27.268 72.3348C26.8394 71.7098 27.0894 70.7812 27.7769 70.4419C28.6608 69.9955 29.6876 70.6294 29.6876 71.6205C29.6876 72.933 28.0091 73.4241 27.268 72.3348Z" fill="#AA55FF"/>
</svg>
