<svg width="80" height="80" viewBox="0 0 80 80" fill="none" xmlns="http://www.w3.org/2000/svg">
<path fill-rule="evenodd" clip-rule="evenodd" d="M70.716 65.6244C76.5121 58.6841 80 49.7494 80 40C80 17.9086 62.0914 0 40 0C17.9086 0 0 17.9086 0 40C0 49.5622 3.35532 58.3408 8.95284 65.2225C9.04877 65.1834 9.144 65.1446 9.23845 65.1061L9.27378 65.0916C11.6384 64.1248 13.8701 63.2122 14.5136 61.812C14.6143 60.5617 14.6088 59.5759 14.6026 58.4421L14.6024 58.4157L14.5961 58.0575C13.5309 56.8614 12.5798 54.6867 12.1867 52.8382C11.3308 52.2945 10.3734 51.124 10.0754 48.5975C9.93589 47.3758 10.2275 46.3908 10.6714 45.6744C9.3716 41.9263 9.7647 37.935 11.7809 34.8329C14.1586 31.1615 18.4257 29.1403 23.796 29.1403C24.4173 29.1403 24.9816 29.4984 25.2542 30.0549L25.641 30.848C25.9897 29.9206 26.4145 29.0251 26.9535 28.1808C29.9588 23.518 35.4179 20.9531 42.3416 20.9531C42.9566 20.9531 43.5145 21.3049 43.7935 21.855L44.827 23.9465C48.2698 24.2728 51.0152 26.2364 52.632 29.5624C52.6786 29.6604 52.7181 29.7631 52.7577 29.8663C52.7828 29.9315 52.8079 29.9969 52.8349 30.0613C54.8068 29.4537 57.0322 29.1403 59.4923 29.1403C60.139 29.1403 60.716 29.5176 60.9759 30.1125L61.6861 31.7243C64.2856 32.0569 66.3653 33.5984 67.6207 36.1505C69.1614 39.2974 69.1614 43.3846 68.2167 45.8727C68.6478 46.6275 68.8317 47.6381 68.7049 48.7382C68.4196 51.2519 67.4685 52.416 66.6189 52.9597C66.2321 54.821 65.3128 56.9637 64.2729 58.147L64.2666 58.5308C64.2662 58.5966 64.2658 58.662 64.2655 58.727C64.2592 59.7726 64.2535 60.7141 64.349 61.8824C64.9958 63.2768 67.2212 64.1914 69.5735 65.1509L69.5927 65.1588C69.9572 65.3083 70.333 65.4626 70.716 65.6244ZM62.233 73.257C60.2564 71.54 57.5877 70.355 54.9992 69.2057C51.2732 67.5512 47.7131 65.9704 46.6213 62.9825C46.4594 61.1259 46.4722 59.7023 46.4862 58.1393C46.4903 57.683 46.4945 57.2149 46.4945 56.7207C47.5597 56.145 49.4682 52.512 49.7915 49.4482C50.6285 49.3778 51.9536 48.5399 52.3404 45.2523C52.5496 43.4869 51.8965 42.374 51.2181 42.1821C51.7444 39.5725 51.5098 35.0184 49.9627 31.6284C49.9329 31.5543 49.9047 31.4776 49.8764 31.4006C49.8265 31.2649 49.7761 31.128 49.7154 31.0016C48.4854 28.4623 46.4945 27.1766 43.7999 27.1766C43.1848 27.1766 42.6269 26.8248 42.3479 26.2684L41.3461 24.2472C41.2986 24.2504 41.2526 24.2552 41.2066 24.26C41.1607 24.2648 41.1147 24.2696 41.0672 24.2728L41.0418 24.228C40.7501 24.2493 40.4754 24.2877 40.2007 24.326C40.0633 24.3452 39.9259 24.3644 39.7864 24.3815C39.7164 24.3903 39.6456 24.3984 39.5747 24.4065C39.4399 24.4218 39.3043 24.4373 39.1714 24.4582C38.9749 24.4902 38.7847 24.5286 38.5945 24.5669L38.5944 24.567C34.6253 25.2706 31.5122 27.1127 29.6735 29.9654C29.0965 30.8672 28.6717 31.8522 28.3801 32.882C27.391 35.7283 27.2451 38.9776 27.6192 42.1821C27.1183 42.4891 26.2877 43.4869 26.497 45.2523C26.8837 48.5399 28.2089 49.3778 29.0458 49.4482C29.3692 52.512 31.3537 56.145 32.4189 56.7207C32.4189 57.2067 32.423 57.6674 32.4269 58.1165C32.4408 59.6885 32.4534 61.1169 32.2857 62.9825C31.1666 66.053 27.425 67.8534 23.573 69.7071C21.4354 70.7357 19.2639 71.7806 17.4875 73.0681C23.166 76.9415 29.8938 79.3904 37.1565 79.9005H42.8435C49.9874 79.3987 56.6137 77.0211 62.233 73.257Z" fill="#AA55FF"/>
</svg>
