<svg width="714" height="204" viewBox="0 0 714 204" fill="none" xmlns="http://www.w3.org/2000/svg">
<path d="M678.5 47V25.5L691 0L714 28L678.5 47Z" fill="#FF3737"/>
<path d="M638 32L653 53L649.5 28L638 32Z" fill="#FF3737"/>
<rect y="63" width="672" height="113" rx="16" fill="#FF3737"/>
<rect x="325" y="24.998" width="39" height="140" rx="2" fill="#FF3737"/>
<rect x="280" y="28.2598" width="39" height="176.405" rx="2" transform="rotate(-7.75482 280 28.2598)" fill="#FF3737"/>
<rect x="364" y="45.998" width="39" height="137" rx="2" fill="#FF3737"/>
<rect x="369" y="12.2285" width="39" height="134" rx="2" transform="rotate(-0.33437 369 12.2285)" fill="#FF3737"/>
<rect x="415.291" y="34.3965" width="39" height="148.814" rx="2" transform="rotate(5.69228 415.291 34.3965)" fill="#FF3737"/>
<path d="M452.225 84.82C457.185 84.82 460.977 86.196 463.601 88.948C466.257 91.7 467.585 95.604 467.585 100.66C467.585 105.716 466.257 109.62 463.601 112.372C460.977 115.124 457.185 116.5 452.225 116.5H438.785V84.82H452.225ZM451.409 110.26C454.097 110.26 456.049 109.46 457.265 107.86C458.513 106.228 459.137 103.828 459.137 100.66C459.137 97.492 458.513 95.108 457.265 93.508C456.049 91.876 454.097 91.06 451.409 91.06H447.041V110.26H451.409ZM475.688 89.716C474.024 89.716 472.808 89.412 472.04 88.804C471.304 88.164 470.936 87.172 470.936 85.828C470.936 84.452 471.304 83.46 472.04 82.852C472.808 82.212 474.024 81.892 475.688 81.892C477.32 81.892 478.52 82.212 479.288 82.852C480.056 83.46 480.44 84.452 480.44 85.828C480.44 87.172 480.056 88.164 479.288 88.804C478.52 89.412 477.32 89.716 475.688 89.716ZM479.768 92.5V116.5H471.608V92.5H479.768ZM494.697 116.98C492.297 116.98 490.057 116.596 487.977 115.828C485.929 115.028 484.233 113.892 482.889 112.42L486.729 107.908C487.529 108.932 488.585 109.796 489.897 110.5C491.241 111.172 492.729 111.508 494.361 111.508C495.353 111.508 496.169 111.364 496.809 111.076C497.449 110.788 497.769 110.34 497.769 109.732C497.769 109.284 497.609 108.932 497.289 108.676C496.969 108.388 496.329 108.148 495.369 107.956L492.009 107.284C489.001 106.676 486.857 105.78 485.577 104.596C484.329 103.38 483.705 101.796 483.705 99.844C483.705 98.532 484.105 97.284 484.905 96.1C485.705 94.884 486.937 93.908 488.601 93.172C490.265 92.404 492.393 92.02 494.985 92.02C497.417 92.02 499.561 92.372 501.417 93.076C503.273 93.78 504.745 94.804 505.833 96.148L501.945 100.564C501.177 99.604 500.185 98.852 498.969 98.308C497.753 97.764 496.537 97.492 495.321 97.492C494.553 97.492 493.897 97.572 493.353 97.732C492.841 97.86 492.457 98.052 492.201 98.308C491.945 98.564 491.817 98.884 491.817 99.268C491.817 99.684 492.009 100.052 492.393 100.372C492.809 100.66 493.561 100.916 494.649 101.14L499.017 102.004C501.481 102.452 503.257 103.268 504.345 104.452C505.433 105.636 505.977 107.06 505.977 108.724C505.977 110.292 505.561 111.7 504.729 112.948C503.897 114.196 502.649 115.188 500.985 115.924C499.321 116.628 497.225 116.98 494.697 116.98ZM509.251 126.58V92.5H516.595L517.027 101.188L516.067 100.18C516.291 98.58 516.787 97.172 517.555 95.956C518.323 94.74 519.315 93.78 520.531 93.076C521.747 92.372 523.139 92.02 524.707 92.02C526.691 92.02 528.419 92.516 529.891 93.508C531.363 94.468 532.499 95.876 533.299 97.732C534.131 99.556 534.547 101.78 534.547 104.404C534.547 107.028 534.131 109.284 533.299 111.172C532.467 113.06 531.299 114.5 529.795 115.492C528.323 116.484 526.595 116.98 524.611 116.98C522.435 116.98 520.675 116.34 519.331 115.06C517.987 113.748 517.091 112.1 516.643 110.116L517.411 108.964V126.58H509.251ZM521.827 110.98C523.235 110.98 524.339 110.468 525.139 109.444C525.939 108.388 526.339 106.74 526.339 104.5C526.339 102.26 525.939 100.628 525.139 99.604C524.371 98.548 523.283 98.02 521.875 98.02C520.979 98.02 520.195 98.276 519.523 98.788C518.851 99.268 518.323 99.988 517.939 100.948C517.587 101.908 517.411 103.092 517.411 104.5C517.411 105.844 517.571 107.012 517.891 108.004C518.243 108.964 518.755 109.7 519.427 110.212C520.099 110.724 520.899 110.98 521.827 110.98ZM550.096 116.98C547.44 116.98 545.136 116.484 543.184 115.492C541.264 114.5 539.776 113.076 538.72 111.22C537.664 109.364 537.136 107.124 537.136 104.5C537.136 101.876 537.664 99.636 538.72 97.78C539.776 95.924 541.248 94.5 543.136 93.508C545.056 92.516 547.248 92.02 549.712 92.02C552.24 92.02 554.384 92.516 556.144 93.508C557.936 94.468 559.296 95.812 560.224 97.54C561.152 99.236 561.616 101.188 561.616 103.396C561.616 103.972 561.6 104.548 561.568 105.124C561.536 105.7 561.488 106.18 561.424 106.564H542.416V102.196H557.824L553.936 103.684C553.936 101.764 553.584 100.292 552.88 99.268C552.208 98.244 551.152 97.732 549.712 97.732C548.688 97.732 547.808 97.972 547.072 98.452C546.368 98.932 545.824 99.684 545.44 100.708C545.088 101.732 544.912 103.044 544.912 104.644C544.912 106.212 545.12 107.492 545.536 108.484C545.952 109.444 546.544 110.148 547.312 110.596C548.08 111.012 549.008 111.22 550.096 111.22C551.312 111.22 552.272 110.98 552.976 110.5C553.712 110.02 554.256 109.348 554.608 108.484L561.136 110.644C560.688 112.02 559.904 113.188 558.784 114.148C557.696 115.076 556.384 115.78 554.848 116.26C553.344 116.74 551.76 116.98 550.096 116.98ZM565.221 116.5V92.5H572.421L572.757 97.684C573.365 95.892 574.261 94.5 575.445 93.508C576.661 92.516 578.197 92.02 580.053 92.02C580.661 92.02 581.173 92.068 581.589 92.164C582.037 92.26 582.389 92.388 582.645 92.548L581.829 99.268C581.509 99.14 581.093 99.044 580.581 98.98C580.101 98.884 579.509 98.836 578.805 98.836C577.845 98.836 576.949 99.044 576.117 99.46C575.285 99.876 574.613 100.5 574.101 101.332C573.621 102.132 573.381 103.156 573.381 104.404V116.5H565.221ZM594.544 116.98C592.144 116.98 589.904 116.596 587.824 115.828C585.776 115.028 584.08 113.892 582.736 112.42L586.576 107.908C587.376 108.932 588.432 109.796 589.744 110.5C591.088 111.172 592.576 111.508 594.208 111.508C595.2 111.508 596.016 111.364 596.656 111.076C597.296 110.788 597.616 110.34 597.616 109.732C597.616 109.284 597.456 108.932 597.136 108.676C596.816 108.388 596.176 108.148 595.216 107.956L591.856 107.284C588.848 106.676 586.704 105.78 585.424 104.596C584.176 103.38 583.552 101.796 583.552 99.844C583.552 98.532 583.952 97.284 584.752 96.1C585.552 94.884 586.784 93.908 588.448 93.172C590.112 92.404 592.24 92.02 594.832 92.02C597.264 92.02 599.408 92.372 601.264 93.076C603.12 93.78 604.592 94.804 605.68 96.148L601.792 100.564C601.024 99.604 600.032 98.852 598.816 98.308C597.6 97.764 596.384 97.492 595.168 97.492C594.4 97.492 593.744 97.572 593.2 97.732C592.688 97.86 592.304 98.052 592.048 98.308C591.792 98.564 591.664 98.884 591.664 99.268C591.664 99.684 591.856 100.052 592.24 100.372C592.656 100.66 593.408 100.916 594.496 101.14L598.864 102.004C601.328 102.452 603.104 103.268 604.192 104.452C605.28 105.636 605.824 107.06 605.824 108.724C605.824 110.292 605.408 111.7 604.576 112.948C603.744 114.196 602.496 115.188 600.832 115.924C599.168 116.628 597.072 116.98 594.544 116.98ZM620.669 116.98C618.013 116.98 615.709 116.484 613.757 115.492C611.837 114.5 610.349 113.076 609.293 111.22C608.237 109.364 607.709 107.124 607.709 104.5C607.709 101.876 608.237 99.636 609.293 97.78C610.349 95.924 611.821 94.5 613.709 93.508C615.629 92.516 617.821 92.02 620.285 92.02C622.813 92.02 624.957 92.516 626.717 93.508C628.509 94.468 629.869 95.812 630.797 97.54C631.725 99.236 632.189 101.188 632.189 103.396C632.189 103.972 632.173 104.548 632.141 105.124C632.109 105.7 632.061 106.18 631.997 106.564H612.989V102.196H628.397L624.509 103.684C624.509 101.764 624.157 100.292 623.453 99.268C622.781 98.244 621.725 97.732 620.285 97.732C619.261 97.732 618.381 97.972 617.645 98.452C616.941 98.932 616.397 99.684 616.013 100.708C615.661 101.732 615.485 103.044 615.485 104.644C615.485 106.212 615.693 107.492 616.109 108.484C616.525 109.444 617.117 110.148 617.885 110.596C618.653 111.012 619.581 111.22 620.669 111.22C621.885 111.22 622.845 110.98 623.549 110.5C624.285 110.02 624.829 109.348 625.181 108.484L631.709 110.644C631.261 112.02 630.477 113.188 629.357 114.148C628.269 115.076 626.957 115.78 625.421 116.26C623.917 116.74 622.333 116.98 620.669 116.98ZM644.626 116.98C642.642 116.98 640.898 116.5 639.394 115.54C637.922 114.548 636.77 113.124 635.938 111.268C635.138 109.412 634.738 107.188 634.738 104.596C634.738 101.908 635.154 99.636 635.986 97.78C636.85 95.924 638.034 94.5 639.538 93.508C641.074 92.516 642.834 92.02 644.818 92.02C646.994 92.02 648.738 92.692 650.05 94.036C651.394 95.348 652.258 97.028 652.642 99.076L651.874 100.084V82.324H660.034V116.5H652.738L652.21 108.34L653.17 109.06C652.978 110.66 652.482 112.052 651.682 113.236C650.914 114.42 649.922 115.348 648.706 116.02C647.522 116.66 646.162 116.98 644.626 116.98ZM647.458 110.98C648.386 110.98 649.17 110.74 649.81 110.26C650.482 109.748 650.994 108.996 651.346 108.004C651.698 107.012 651.874 105.796 651.874 104.356C651.874 103.012 651.698 101.876 651.346 100.948C651.026 99.988 650.53 99.268 649.858 98.788C649.218 98.276 648.434 98.02 647.506 98.02C646.098 98.02 644.978 98.548 644.146 99.604C643.346 100.628 642.946 102.26 642.946 104.5C642.946 106.74 643.346 108.388 644.146 109.444C644.946 110.468 646.05 110.98 647.458 110.98Z" fill="#E9F2FF"/>
<path d="M484.724 133.515C488.49 133.239 491.475 133.919 493.681 135.554C495.916 137.155 497.141 139.423 497.356 142.359C497.592 145.583 496.735 148.116 494.785 149.96C492.834 151.803 489.976 152.863 486.21 153.139L485.476 153.626L479.205 154.086L480.05 165.623L471.96 166.216L469.644 134.62L484.724 133.515ZM484.617 147.817C486.213 147.7 487.386 147.293 488.137 146.597C488.888 145.9 489.212 144.849 489.11 143.445C489.009 142.073 488.536 141.097 487.692 140.517C486.847 139.937 485.627 139.706 484.031 139.823L478.191 140.251L478.777 148.245L484.617 147.817ZM489.578 149.186L500.827 164.1L491.731 164.767L482.627 151.525L489.578 149.186ZM514.822 163.555C512.173 163.75 509.839 163.423 507.82 162.577C505.832 161.728 504.244 160.416 503.055 158.642C501.867 156.869 501.176 154.673 500.984 152.056C500.793 149.439 501.155 147.167 502.073 145.238C502.99 143.31 504.354 141.782 506.165 140.655C508.007 139.525 510.157 138.87 512.614 138.69C515.136 138.505 517.31 138.843 519.138 139.704C520.995 140.53 522.45 141.771 523.502 143.427C524.551 145.051 525.157 146.964 525.318 149.166C525.36 149.74 525.386 150.316 525.397 150.892C525.407 151.469 525.394 151.952 525.358 152.339L506.401 153.729L506.082 149.372L521.449 148.246L517.68 150.014C517.539 148.099 517.081 146.657 516.304 145.687C515.559 144.715 514.468 144.282 513.032 144.387C512.011 144.462 511.151 144.765 510.452 145.298C509.785 145.828 509.297 146.618 508.989 147.667C508.713 148.714 508.633 150.036 508.75 151.631C508.865 153.195 509.166 154.456 509.653 155.415C510.138 156.342 510.78 157.001 511.579 157.392C512.375 157.751 513.316 157.89 514.401 157.811C515.614 157.722 516.554 157.412 517.221 156.882C517.92 156.35 518.413 155.64 518.701 154.752L525.369 156.429C525.023 157.834 524.327 159.057 523.28 160.096C522.262 161.101 521.005 161.899 519.509 162.49C518.044 163.079 516.482 163.434 514.822 163.555ZM539.427 136.725C541.853 136.547 543.889 136.751 545.536 137.336C547.213 137.887 548.54 138.704 549.518 139.787C550.526 140.837 551.189 142.007 551.508 143.299L544.175 146.34C543.851 144.984 543.361 143.993 542.706 143.367C542.08 142.707 541.208 142.418 540.091 142.5C539.07 142.575 538.226 142.877 537.559 143.407C536.921 143.903 536.465 144.675 536.188 145.722C535.91 146.737 535.828 148.026 535.943 149.59C536.057 151.154 536.342 152.416 536.798 153.378C537.251 154.307 537.845 154.969 538.58 155.365C539.312 155.728 540.157 155.875 541.115 155.805C541.913 155.746 542.556 155.555 543.046 155.23C543.565 154.871 543.979 154.391 544.288 153.791C544.597 153.191 544.769 152.473 544.804 151.636L552.3 153.445C552.18 154.865 551.666 156.17 550.758 157.36C549.88 158.515 548.667 159.47 547.118 160.226C545.569 160.981 543.725 161.437 541.587 161.594C538.97 161.785 536.653 161.474 534.636 160.659C532.617 159.813 531.013 158.502 529.824 156.728C528.633 154.923 527.941 152.711 527.749 150.094C527.558 147.477 527.921 145.205 528.838 143.277C529.753 141.316 531.117 139.789 532.93 138.693C534.772 137.563 536.938 136.907 539.427 136.725ZM565.679 134.801C568.201 134.616 570.439 134.949 572.394 135.801C574.379 136.618 575.968 137.929 577.159 139.735C578.38 141.506 579.086 143.701 579.278 146.318C579.469 148.935 579.092 151.224 578.145 153.187C577.227 155.115 575.847 156.644 574.005 157.774C572.192 158.869 570.025 159.509 567.504 159.694C565.047 159.874 562.825 159.556 560.84 158.739C558.853 157.89 557.249 156.579 556.028 154.808C554.837 153.002 554.145 150.791 553.954 148.174C553.762 145.557 554.125 143.284 555.042 141.356C555.989 139.393 557.385 137.863 559.23 136.765C561.072 135.636 563.222 134.981 565.679 134.801ZM566.104 140.593C565.178 140.661 564.397 140.943 563.759 141.439C563.122 141.935 562.664 142.69 562.385 143.705C562.107 144.72 562.025 146.01 562.14 147.574C562.254 149.138 562.523 150.401 562.947 151.365C563.368 152.297 563.931 152.977 564.637 153.407C565.34 153.804 566.154 153.969 567.079 153.902C568.037 153.831 568.834 153.548 569.472 153.052C570.107 152.525 570.565 151.769 570.846 150.786C571.124 149.771 571.206 148.481 571.092 146.918C570.977 145.354 570.708 144.09 570.284 143.126C569.861 142.163 569.297 141.482 568.595 141.084C567.892 140.687 567.061 140.523 566.104 140.593ZM583.775 158.02L582.021 134.084L589.202 133.558L589.916 138.704C590.391 136.872 591.183 135.418 592.291 134.342C593.432 133.264 594.927 132.657 596.778 132.521C597.385 132.477 597.899 132.487 598.321 132.553C598.775 132.616 599.135 132.718 599.402 132.858L599.079 139.62C598.751 139.516 598.329 139.451 597.814 139.424C597.328 139.363 596.734 139.359 596.032 139.41C595.074 139.481 594.196 139.753 593.397 140.229C592.597 140.705 591.973 141.376 591.523 142.244C591.103 143.076 590.938 144.115 591.029 145.36L591.914 157.424L583.775 158.02ZM611.951 156.436C609.972 156.581 608.198 156.23 606.628 155.383C605.087 154.501 603.834 153.165 602.869 151.375C601.935 149.582 601.373 147.393 601.184 144.808C600.988 142.127 601.236 139.831 601.93 137.919C602.656 136.005 603.733 134.498 605.161 133.399C606.62 132.297 608.339 131.674 610.318 131.529C612.488 131.37 614.276 131.913 615.683 133.157C617.119 134.367 618.104 135.98 618.637 137.994L617.944 139.056L616.646 121.343L624.784 120.747L627.283 154.831L620.006 155.365L618.883 147.265L619.893 147.913C619.818 149.523 619.426 150.947 618.714 152.186C618.035 153.423 617.113 154.421 615.95 155.181C614.816 155.905 613.483 156.324 611.951 156.436ZM614.337 150.245C615.262 150.177 616.027 149.881 616.63 149.355C617.262 148.795 617.718 148.008 617.997 146.993C618.275 145.978 618.362 144.752 618.257 143.316C618.158 141.976 617.9 140.856 617.481 139.956C617.092 139.022 616.544 138.34 615.839 137.91C615.163 137.447 614.363 137.249 613.437 137.316C612.033 137.419 610.955 138.028 610.202 139.142C609.479 140.222 609.199 141.878 609.363 144.112C609.527 146.346 610.046 147.961 610.921 148.955C611.794 149.918 612.932 150.348 614.337 150.245ZM642.251 154.215C639.858 154.391 637.596 154.172 635.465 153.558C633.364 152.909 631.59 151.9 630.142 150.531L633.641 145.75C634.514 146.713 635.631 147.497 636.99 148.104C638.38 148.675 639.889 148.902 641.516 148.783C642.506 148.71 643.309 148.507 643.926 148.173C644.543 147.839 644.83 147.369 644.785 146.762C644.753 146.315 644.567 145.976 644.229 145.744C643.889 145.48 643.233 145.288 642.262 145.166L638.862 144.742C635.817 144.355 633.614 143.618 632.25 142.531C630.917 141.41 630.179 139.875 630.036 137.929C629.94 136.62 630.248 135.346 630.959 134.107C631.668 132.836 632.825 131.772 634.431 130.917C636.035 130.029 638.129 129.491 640.714 129.301C643.139 129.123 645.303 129.318 647.206 129.884C649.108 130.45 650.651 131.364 651.835 132.625L648.28 137.313C647.444 136.412 646.399 135.735 645.147 135.281C643.894 134.827 642.662 134.645 641.449 134.734C640.683 134.79 640.035 134.918 639.504 135.117C639.003 135.282 638.634 135.502 638.397 135.776C638.16 136.05 638.056 136.378 638.084 136.761C638.115 137.176 638.333 137.529 638.739 137.82C639.175 138.077 639.944 138.277 641.046 138.421L645.465 138.964C647.955 139.23 649.786 139.914 650.958 141.016C652.129 142.117 652.776 143.497 652.898 145.157C653.012 146.721 652.7 148.155 651.962 149.461C651.223 150.766 650.051 151.847 648.445 152.702C646.837 153.526 644.773 154.031 642.251 154.215Z" fill="#E9F2FF"/>
</svg>
