<svg width="65" height="63" viewBox="0 0 65 63" fill="none" xmlns="http://www.w3.org/2000/svg">
<rect x="18.8158" y="2.5" width="43.6842" height="57.1053" rx="8.5" stroke="#D363FB" stroke-width="5"/>
<rect x="27.6316" y="35" width="26.0526" height="3.94737" rx="1.97368" fill="#D363FB"/>
<rect x="27.6316" y="42.1055" width="26.0526" height="3.94737" rx="1.97368" fill="#D363FB"/>
<rect x="27.6316" y="49.2109" width="26.0526" height="3.94737" rx="1.97368" fill="#D363FB"/>
<g clip-path="url(#clip0_306_8350)">
<path d="M16.1842 47.796L16.1988 47.8105L23.6713 55.2831C26.2415 57.8533 30.4033 57.8533 32.9734 55.2831C34.2033 54.0532 34.2033 52.0662 32.9734 50.8363L23.0732 40.9361L23.0587 40.9215L32.9734 31.0068C34.2033 29.7769 34.2033 27.7898 32.9734 26.5599C30.4033 23.9898 26.2415 23.9898 23.6713 26.5599L16.1842 34.047L15.9446 33.8074C16.0877 33.164 16.1612 32.4987 16.1612 31.8179C16.1612 26.8 12.0985 22.7373 7.08059 22.7373C2.06273 22.7373 -2 26.8 -2 31.8179C-2 36.8358 2.06273 40.8985 7.08059 40.8985C7.76545 40.8985 8.42989 40.8219 9.06786 40.6796L9.30973 40.9215L9.07008 41.1612C8.42673 41.018 7.76135 40.9445 7.08059 40.9445C2.06273 40.9445 -2 45.0073 -2 50.0251C-2 55.043 2.06273 59.1057 7.08059 59.1057C12.0985 59.1057 16.1612 55.043 16.1612 50.0251C16.1612 49.3403 16.0846 48.6758 15.9423 48.0379L16.1842 47.796ZM7.47649 30.8621L7.47649 30.8621C7.60201 30.9141 7.71605 30.9903 7.81212 31.0864L9.15899 29.7395L7.81212 31.0864C7.90819 31.1824 7.98439 31.2965 8.03638 31.422C8.08837 31.5475 8.11513 31.682 8.11513 31.8179C8.11513 31.9538 8.08837 32.0883 8.03638 32.2138L9.6707 32.8908L8.03638 32.2138C7.98439 32.3393 7.90819 32.4534 7.81212 32.5494C7.71606 32.6455 7.60201 32.7217 7.47649 32.7737L8.15345 34.408L7.47649 32.7737C7.35098 32.8257 7.21645 32.8524 7.08059 32.8524C6.94473 32.8524 6.81021 32.8257 6.68469 32.7737C6.55917 32.7217 6.44513 32.6455 6.34906 32.5494L4.93485 33.9636L6.34906 32.5494C6.253 32.4534 6.17679 32.3393 6.1248 32.2138L6.1248 32.2138C6.07281 32.0883 6.04605 31.9538 6.04605 31.8179C6.04605 31.682 6.07281 31.5475 6.1248 31.422L4.27704 30.6566L6.1248 31.422C6.17679 31.2965 6.253 31.1824 6.34906 31.0864L4.93485 29.6722L6.34906 31.0864C6.44513 30.9903 6.55918 30.9141 6.68469 30.8621L5.91932 29.0143L6.68469 30.8621C6.81021 30.8101 6.94473 30.7834 7.08059 30.7834C7.21645 30.7834 7.35098 30.8101 7.47649 30.8621ZM7.08059 48.9906C7.21645 48.9906 7.35097 49.0174 7.47649 49.0693L8.24186 47.2216L7.4765 49.0693C7.60201 49.1213 7.71605 49.1975 7.81212 49.2936C7.90819 49.3897 7.98439 49.5037 8.03638 49.6292C8.08837 49.7547 8.11513 49.8893 8.11513 50.0251C8.11513 50.161 8.08837 50.2955 8.03638 50.421C7.98439 50.5466 7.90819 50.6606 7.81212 50.7567L9.22634 52.1709L7.81212 50.7567C7.71606 50.8527 7.60201 50.9289 7.47649 50.9809C7.35098 51.0329 7.21645 51.0597 7.08059 51.0597C6.94473 51.0597 6.8102 51.0329 6.68469 50.9809C6.55917 50.9289 6.44513 50.8527 6.34907 50.7567L4.94943 52.1563L6.34906 50.7567C6.253 50.6606 6.17679 50.5465 6.1248 50.421C6.07281 50.2955 6.04605 50.161 6.04605 50.0251C6.04605 49.8893 6.07281 49.7547 6.1248 49.6292C6.17679 49.5037 6.253 49.3897 6.34906 49.2936C6.44513 49.1975 6.55918 49.1213 6.68468 49.0693C6.81021 49.0174 6.94474 48.9906 7.08059 48.9906Z" fill="#D363FB" stroke="white" stroke-width="4"/>
</g>
<circle cx="40.2631" cy="18.4211" r="7.89474" fill="#D363FB"/>
<defs>
<clipPath id="clip0_306_8350">
<rect width="32.3684" height="32.3684" fill="white" transform="translate(0 24.7373)"/>
</clipPath>
</defs>
</svg>
