<svg width="61" height="54" viewBox="0 0 61 54" fill="none" xmlns="http://www.w3.org/2000/svg">
<path d="M11.8611 10.125C9.05469 10.125 6.77778 12.3926 6.77778 15.1875V27H16.9444V15.1875C16.9444 12.3926 14.6675 10.125 11.8611 10.125ZM0 15.1875C0 8.65898 5.30573 3.375 11.8611 3.375C18.4165 3.375 23.7222 8.65898 23.7222 15.1875V38.8125C23.7222 45.341 18.4165 50.625 11.8611 50.625C5.30573 50.625 0 45.341 0 38.8125V15.1875ZM58.7655 42.1242C58.0135 43.4215 56.2556 43.5059 55.1859 42.4512L35.3186 22.6652C34.2595 21.6105 34.3337 19.8492 35.6469 19.1004C38.125 17.6871 40.995 16.875 44.0556 16.875C53.4174 16.875 61 24.4266 61 33.75C61 36.798 60.1846 39.6562 58.7655 42.1242ZM52.4642 48.3996C49.9861 49.8129 47.1161 50.625 44.0556 50.625C34.6937 50.625 27.1111 43.0734 27.1111 33.75C27.1111 30.702 27.9266 27.8438 29.3457 25.3758C30.0976 24.0785 31.8556 23.9941 32.9252 25.0488L52.7925 44.8348C53.8516 45.8895 53.7774 47.6508 52.4642 48.3996Z" fill="#F9744B"/>
</svg>
