<svg width="36" height="38" viewBox="0 0 36 38" fill="none" xmlns="http://www.w3.org/2000/svg">
<path fill-rule="evenodd" clip-rule="evenodd" d="M0.818044 7.86515C0.601097 8.08223 0.47927 8.3766 0.479364 8.6835C0.479458 8.99041 0.601465 9.2847 0.818544 9.50165C1.03562 9.7186 1.32999 9.84042 1.6369 9.84033C1.9438 9.84024 2.2381 9.71823 2.45504 9.50115L3.27304 8.68215L7.36304 12.7721L4.09104 16.0461C3.88026 16.2644 3.76362 16.5566 3.76625 16.86C3.76887 17.1634 3.89055 17.4536 4.10508 17.6681C4.31961 17.8826 4.60982 18.0043 4.91319 18.0069C5.21657 18.0096 5.50884 17.8929 5.72704 17.6821L7.36304 16.0461L10.318 19.0012H2.37404C1.74404 19.0012 1.14104 19.2541 0.695045 19.7041C0.249085 20.1563 -0.000635227 20.7661 4.45404e-05 21.4011V24.9991C-0.00744634 27.7894 0.930137 30.4999 2.66004 32.6891C4.37941 34.8669 6.79377 36.3889 9.50004 37.0011C12.2061 36.3895 14.6204 34.8682 16.34 32.6911C17.5517 31.1591 18.3818 29.361 18.762 27.4452L21.272 29.9562C22.0682 30.7526 23.0794 31.2994 24.1818 31.5296C25.2841 31.7598 26.4297 31.6634 27.478 31.2521L28.636 32.4111C28.9233 32.6986 29.2812 32.9053 29.6737 33.0105C30.0663 33.1156 30.4796 33.1155 30.872 33.0101L33.545 35.6831C33.7621 35.9002 34.0565 36.0222 34.3635 36.0222C34.6705 36.0222 34.965 35.9002 35.182 35.6831C35.3991 35.4661 35.5211 35.1716 35.5211 34.8646C35.5211 34.5577 35.3991 34.2632 35.182 34.0461L32.508 31.3732C32.6131 30.9807 32.613 30.5676 32.5076 30.1752C32.4023 29.7829 32.1955 29.4252 31.908 29.1382L30.75 27.9792C31.105 27.0738 31.2261 26.0936 31.102 25.1292C30.9412 23.8588 30.3617 22.6783 29.455 21.7742L15.545 7.86415L17.182 6.22715C17.399 6.01007 17.5208 5.7157 17.5207 5.4088C17.5206 5.10189 17.3986 4.8076 17.1815 4.59065C16.9645 4.3737 16.6701 4.25188 16.3632 4.25197C16.0563 4.25206 15.762 4.37407 15.545 4.59115L12.273 7.86415L8.18304 3.77415L9.00004 2.95615C9.21712 2.7392 9.33913 2.44491 9.33922 2.138C9.33932 1.8311 9.21749 1.53673 9.00054 1.31965C8.7836 1.10257 8.4893 0.980563 8.1824 0.980469C7.87549 0.980375 7.58112 1.1022 7.36404 1.31915L0.818044 7.86515ZM20.547 26.4011L25.9 21.0482L14.13 9.27815L8.77704 14.6321L13.147 19.0012H16.626C17.256 19.0012 17.859 19.2541 18.304 19.7041C18.75 20.1542 19 20.7642 19 21.4011V24.8552L20.547 26.4011ZM10.858 9.27815L6.76804 5.18815L4.68804 7.26815L8.77804 11.3581L10.858 9.27815ZM29.671 29.7282C29.5308 29.884 29.3822 30.0322 29.226 30.1722L30.05 30.9961C30.0792 31.0254 30.1138 31.0486 30.1519 31.0644C30.1901 31.0802 30.2309 31.0884 30.2722 31.0885C30.3135 31.0885 30.3543 31.0804 30.3925 31.0647C30.4306 31.0489 30.4653 31.0258 30.4945 30.9966C30.5238 30.9675 30.5469 30.9329 30.5628 30.8948C30.5786 30.8566 30.5868 30.8158 30.5868 30.7745C30.5869 30.7332 30.5788 30.6923 30.5631 30.6542C30.5473 30.616 30.5242 30.5814 30.495 30.5521L29.671 29.7282ZM27.536 22.6842L28.04 23.1882C28.4321 23.5785 28.7334 24.0503 28.9227 24.5702C29.1119 25.09 29.1844 25.6451 29.135 26.1961C29.1036 26.5575 29.0204 26.9125 28.888 27.2502L26.748 29.3892C26.0621 29.6585 25.3126 29.7218 24.5912 29.5714C23.8699 29.4209 23.2081 29.0632 22.687 28.5422L22.183 28.0381L27.536 22.6842ZM11 24.0012C11 23.7359 10.8947 23.4816 10.7072 23.294C10.5196 23.1065 10.2653 23.0012 10 23.0012C9.73483 23.0012 9.48047 23.1065 9.29294 23.294C9.1054 23.4816 9.00004 23.7359 9.00004 24.0012V26.0012H7.00004C6.73483 26.0012 6.48047 26.1065 6.29294 26.294C6.1054 26.4816 6.00004 26.7359 6.00004 27.0012C6.00004 27.2664 6.1054 27.5207 6.29294 27.7083C6.48047 27.8958 6.73483 28.0012 7.00004 28.0012H9.00004V30.0012C9.00004 30.2664 9.1054 30.5207 9.29294 30.7083C9.48047 30.8958 9.73483 31.0012 10 31.0012C10.2653 31.0012 10.5196 30.8958 10.7072 30.7083C10.8947 30.5207 11 30.2664 11 30.0012V28.0012H13C13.2653 28.0012 13.5196 27.8958 13.7072 27.7083C13.8947 27.5207 14 27.2664 14 27.0012C14 26.7359 13.8947 26.4816 13.7072 26.294C13.5196 26.1065 13.2653 26.0012 13 26.0012H11V24.0012Z" fill="#4CB657"/>
</svg>
