<svg width="80" height="80" viewBox="0 0 80 80" fill="none" xmlns="http://www.w3.org/2000/svg">
<path d="M80 40C80 62.0914 62.0914 80 40 80C17.9086 80 0 62.0914 0 40C0 17.9086 17.9086 0 40 0C62.0914 0 80 17.9086 80 40Z" fill="#FFD439"/>
<path d="M39.6845 58.2015C40.7986 58.2029 41.8855 57.8572 42.794 57.2124C43.7025 56.5676 44.3876 55.6557 44.754 54.6036H34.6151C34.9815 55.6557 35.6666 56.5676 36.5751 57.2124C37.4836 57.8572 38.5705 58.2029 39.6845 58.2015ZM55.875 51.0057V47.4078C55.8754 47.1716 55.829 46.9375 55.7385 46.7193C55.6481 46.501 55.5153 46.3028 55.3479 46.136L52.2771 43.0652V36.6142C52.2771 30.827 48.3465 25.9519 43.0216 24.4857C42.4945 23.1581 41.2065 22.2227 39.6845 22.2227C38.1626 22.2227 36.8746 23.1581 36.3475 24.4857C33.9675 25.1405 31.9167 26.5149 30.3283 28.3121L24.7659 22.7497L22.2222 25.2934L54.6032 57.6744L57.1469 55.1307L54.6967 52.6805C55.0411 52.5559 55.3389 52.3283 55.5497 52.0287C55.7605 51.7291 55.874 51.372 55.875 51.0057ZM39.6845 27.6195C44.6442 27.6195 48.6793 31.6545 48.6793 36.6142V43.81C48.6793 44.2885 48.8681 44.7454 49.2063 45.0818L52.2771 48.1526V49.2068H51.223L32.8612 30.845C34.5036 28.8877 36.934 27.6195 39.6845 27.6195ZM30.1627 45.0818C30.3301 44.915 30.4629 44.7168 30.5533 44.4985C30.6438 44.2802 30.6902 44.0462 30.6898 43.81V38.6308L27.2143 35.1552C27.1585 35.6374 27.092 36.1177 27.092 36.6142V43.0652L24.0212 46.136C23.8538 46.3028 23.721 46.501 23.6306 46.7193C23.5401 46.9375 23.4937 47.1716 23.4941 47.4078V51.0057C23.4941 51.4828 23.6836 51.9404 24.021 52.2778C24.3583 52.6151 24.8159 52.8047 25.293 52.8047H44.8637L41.2658 49.2068H27.092V48.1526L30.1627 45.0818Z" fill="#050505"/>
</svg>
