<svg width="80" height="80" viewBox="0 0 80 80" fill="none" xmlns="http://www.w3.org/2000/svg">
<path d="M80 40C80 62.0914 62.0914 80 40 80C17.9086 80 0 62.0914 0 40C0 17.9086 17.9086 0 40 0C62.0914 0 80 17.9086 80 40Z" fill="#FFD439"/>
<g clip-path="url(#clip0_306_8102)">
<path d="M59.6825 25.239H57.2222V20.3184H32.619V25.239H27.6984V28.3144L26.2222 30.1596H22.7778V34.4652L20.3175 37.5406V59.6834H49.8413L59.6825 47.3819V25.239ZM25.2381 32.6199H44.9206V37.5406H25.2381V32.6199ZM47.381 57.2231H22.7778V40.0009H47.381V57.2231ZM49.8413 37.5406H47.381V30.1596H30.1587V27.6993H49.8413V37.5406ZM54.7619 31.3898L52.3016 34.4652V25.239H35.0794V22.7787H54.7619V31.3898Z" fill="#050505"/>
</g>
<defs>
<clipPath id="clip0_306_8102">
<rect width="39.3651" height="39.3651" fill="white" transform="translate(20.3175 20.3184)"/>
</clipPath>
</defs>
</svg>
