<svg width="78" height="78" viewBox="0 0 78 78" fill="none" xmlns="http://www.w3.org/2000/svg">
<path d="M26 71.5C21.5042 71.5 17.6713 69.9151 14.5015 66.7453C11.3317 63.5754 9.74783 59.7437 9.75 55.25V26H3.25V6.5H48.75V26H42.25V35.8312C39.975 37.2937 38.038 39.1224 36.439 41.3172C34.84 43.5121 33.7166 45.9897 33.0688 48.75H26V42.25H35.75V39H26V32.5H35.75V26H16.25V55.25C16.25 57.9583 17.1979 60.2604 19.0938 62.1562C20.9896 64.0521 23.2917 65 26 65C27.625 65 29.1146 64.6479 30.4688 63.9437C31.8229 63.2396 32.9604 62.2646 33.8813 61.0187C34.3146 62.1021 34.8021 63.1313 35.3438 64.1063C35.8854 65.0813 36.5354 66.0292 37.2938 66.95C35.8313 68.3583 34.138 69.4688 32.214 70.2812C30.29 71.0938 28.2187 71.5 26 71.5ZM26 58.5V52H32.5812C32.4729 53.0833 32.4588 54.1667 32.539 55.25C32.6192 56.3333 32.7958 57.4167 33.0688 58.5H26ZM53.625 61.75C55.9 61.75 57.8229 60.9646 59.3937 59.3937C60.9646 57.8229 61.75 55.9 61.75 53.625C61.75 51.35 60.9646 49.4271 59.3937 47.8563C57.8229 46.2854 55.9 45.5 53.625 45.5C51.35 45.5 49.4271 46.2854 47.8563 47.8563C46.2854 49.4271 45.5 51.35 45.5 53.625C45.5 55.9 46.2854 57.8229 47.8563 59.3937C49.4271 60.9646 51.35 61.75 53.625 61.75ZM70.2 74.75L61.425 65.975C60.2333 66.7333 58.9875 67.3021 57.6875 67.6813C56.3875 68.0604 55.0333 68.25 53.625 68.25C49.5625 68.25 46.1099 66.8276 43.2673 63.9827C40.4246 61.1379 39.0022 57.6853 39 53.625C39 49.5625 40.4224 46.1088 43.2673 43.264C46.1121 40.4192 49.5647 38.9978 53.625 39C57.6875 39 61.1412 40.4224 63.986 43.2673C66.8308 46.1121 68.2522 49.5647 68.25 53.625C68.25 55.0333 68.0604 56.3875 67.6813 57.6875C67.3021 58.9875 66.7333 60.2333 65.975 61.425L74.75 70.2L70.2 74.75Z" fill="#5DB9ED"/>
</svg>
