<svg width="61" height="65" viewBox="0 0 61 65" fill="none" xmlns="http://www.w3.org/2000/svg">
<rect x="2.5" y="2.5" width="43.6842" height="57.1053" rx="8.5" stroke="#7863FB" stroke-width="5"/>
<g clip-path="url(#clip0_306_8362)">
<path d="M21.6667 10C21.0655 10 20.489 10.2388 20.0639 10.6639C19.6388 11.089 19.4 11.6655 19.4 12.2667V13.4C19.4 14.0012 19.6388 14.5777 20.0639 15.0028C20.489 15.4279 21.0655 15.6667 21.6667 15.6667C22.2678 15.6667 22.8444 15.4279 23.2694 15.0028C23.6945 14.5777 23.9333 14.0012 23.9333 13.4V12.2667C23.9333 11.6655 23.6945 11.089 23.2694 10.6639C22.8444 10.2388 22.2678 10 21.6667 10ZM27.3333 10C26.7322 10 26.1556 10.2388 25.7306 10.6639C25.3055 11.089 25.0667 11.6655 25.0667 12.2667V13.4C25.0667 14.0012 25.3055 14.5777 25.7306 15.0028C26.1556 15.4279 26.7322 15.6667 27.3333 15.6667C27.9345 15.6667 28.511 15.4279 28.9361 15.0028C29.3612 14.5777 29.6 14.0012 29.6 13.4V12.2667C29.6 11.6655 29.3612 11.089 28.9361 10.6639C28.511 10.2388 27.9345 10 27.3333 10ZM18.2667 15.6667C17.6655 15.6667 17.089 15.9055 16.6639 16.3306C16.2388 16.7556 16 17.3322 16 17.9333V18.5C16 19.1012 16.2388 19.6777 16.6639 20.1028C17.089 20.5279 17.6655 20.7667 18.2667 20.7667C18.8678 20.7667 19.4444 20.5279 19.8694 20.1028C20.2945 19.6777 20.5333 19.1012 20.5333 18.5V17.9333C20.5333 17.3322 20.2945 16.7556 19.8694 16.3306C19.4444 15.9055 18.8678 15.6667 18.2667 15.6667ZM30.7333 15.6667C30.1322 15.6667 29.5556 15.9055 29.1306 16.3306C28.7055 16.7556 28.4667 17.3322 28.4667 17.9333V18.5C28.4667 19.1012 28.7055 19.6777 29.1306 20.1028C29.5556 20.5279 30.1322 20.7667 30.7333 20.7667C31.3345 20.7667 31.911 20.5279 32.3361 20.1028C32.7612 19.6777 33 19.1012 33 18.5V17.9333C33 17.3322 32.7612 16.7556 32.3361 16.3306C31.911 15.9055 31.3345 15.6667 30.7333 15.6667ZM26.8947 18.8162C26.6037 18.4627 26.2381 18.1781 25.824 17.9827C25.41 17.7872 24.9578 17.6859 24.5 17.6859C24.0422 17.6859 23.59 17.7872 23.176 17.9827C22.7619 18.1781 22.3963 18.4627 22.1053 18.8162L18.7993 22.8316C17.4291 24.4942 18.6123 27 20.7657 27C21.0739 27 21.3777 26.9286 21.6519 26.7903L22.0599 26.5863C22.8175 26.2075 23.653 26.0103 24.5 26.0103C25.347 26.0103 26.1825 26.2075 26.9401 26.5863L27.3481 26.7903C27.6223 26.9286 27.9261 27 28.2343 27C30.3877 27 31.5709 24.4942 30.2018 22.8316L26.8947 18.8162Z" fill="#7863FB"/>
</g>
<rect x="11" y="33" width="26.0526" height="3.94737" rx="1.97368" fill="#7863FB"/>
<rect x="11" y="40.1055" width="26.0526" height="3.94737" rx="1.97368" fill="#7863FB"/>
<path d="M11 49.1846C11 48.0946 11.8836 47.2109 12.9737 47.2109H35.0789C36.169 47.2109 37.0526 48.0946 37.0526 49.1846C37.0526 50.2747 36.169 51.1583 35.0789 51.1583H12.9737C11.8836 51.1583 11 50.2747 11 49.1846Z" fill="#7863FB"/>
<rect x="36" y="40" width="25" height="25" rx="5" fill="#7863FB"/>
<rect x="46" y="45" width="5" height="15" fill="white"/>
<rect x="56" y="50" width="5" height="15" transform="rotate(90 56 50)" fill="white"/>
<defs>
<clipPath id="clip0_306_8362">
<rect width="17" height="17" fill="white" transform="translate(16 10)"/>
</clipPath>
</defs>
</svg>
