<svg width="64" height="73" viewBox="0 0 64 73" fill="none" xmlns="http://www.w3.org/2000/svg">
<path d="M62.9085 25.2789L56.5776 22.7247C56.1909 20.681 54.6379 19.0447 52.6394 18.5369L52.297 14.5916C52.273 14.3162 52.1693 14.0537 51.9984 13.8364C51.8276 13.6191 51.597 13.4564 51.335 13.3681C51.0731 13.2799 50.791 13.27 50.5235 13.3396C50.256 13.4093 50.0146 13.5555 49.8289 13.7603L48.1726 15.5871L47.1565 12.0303C47.074 11.7415 46.9021 11.4864 46.6655 11.3014C46.429 11.1164 46.1399 11.0112 45.8397 11.0007C45.2244 10.9816 44.6648 11.3571 44.4547 11.9365L35.6876 36.1226C29.381 37.7603 23.874 41.7959 20.4915 47.2873C17.3933 52.3171 16.4309 58.0797 17.7818 63.5133C18.5712 66.689 20.0701 68.7817 21.6034 70.1538H20.3975L20.3634 70.1543C14.6591 70.2934 9.37273 67.0502 6.90424 61.897C6.56531 61.1893 5.7168 60.8906 5.0091 61.2294C4.66928 61.3922 4.40806 61.6833 4.28289 62.0387C4.15772 62.3941 4.17886 62.7847 4.34166 63.1245C7.23212 69.159 13.3521 72.9999 20.0152 72.9999H47.1405C47.5173 72.9999 47.8787 72.8502 48.1452 72.5838C48.4116 72.3173 48.5613 71.956 48.5613 71.5791C48.5613 67.7548 45.5109 66.0117 42.8187 65.3718C44.0775 62.9177 44.1863 60.7594 44.0436 59.3475L44.4149 59.2979L52.9305 72.3552C53.0596 72.5531 53.2361 72.7157 53.4439 72.8283C53.6517 72.9408 53.8843 72.9997 54.1206 72.9998H59.2914C59.5454 72.9997 59.7948 72.9316 60.0135 72.8024C60.2323 72.6733 60.4124 72.4879 60.5351 72.2655C60.6579 72.043 60.7187 71.7918 60.7114 71.5379C60.704 71.284 60.6287 71.0367 60.4933 70.8217C60.4384 70.7346 55.0998 62.2582 52.2299 57.5125V33.6397C52.6523 33.6884 53.1267 33.7128 53.5456 33.7128C57.6673 33.7128 61.5436 31.3875 63.6307 27.2645C63.6324 27.2612 63.6859 27.1494 63.6945 27.1279C63.7643 26.9549 63.7993 26.7698 63.7976 26.5833C63.7959 26.3967 63.7574 26.2123 63.6845 26.0406C63.6115 25.8689 63.5054 25.7133 63.3722 25.5826C63.2391 25.4519 63.0815 25.3487 62.9085 25.2789Z" fill="url(#paint0_linear_441_704)"/>
<path d="M38.2032 1.25502C37.8159 0.865017 37.2932 0.644412 36.7497 0.641522C36.4812 0.637573 36.2152 0.686876 35.9666 0.78664L26.5046 4.72008C26.0027 4.92872 25.6056 5.3314 25.4006 5.83953C25.1956 6.34766 25.1995 6.91961 25.4115 7.42957C25.6235 7.93953 26.0262 8.34572 26.531 8.55878C27.0358 8.77184 27.6014 8.77433 28.1033 8.56568L33.0046 6.52816L26.8943 21.6742L18.0305 17.9172C17.7797 17.8101 17.5109 17.754 17.2397 17.7523C16.9685 17.7505 16.7003 17.8031 16.4505 17.907C16.2006 18.0108 15.9742 18.1639 15.7842 18.3574C15.5941 18.5509 15.4443 18.7809 15.3433 19.0343L8.78483 35.2912C8.68177 35.5437 8.62939 35.8149 8.63072 36.0891C8.63205 36.3634 8.68706 36.6353 8.79258 36.8891C8.8981 37.1429 9.05204 37.3737 9.24552 37.5681C9.439 37.7624 9.66819 37.9166 9.91987 38.0216C10.1707 38.1287 10.4395 38.1847 10.7107 38.1865C10.9819 38.1882 11.2501 38.1356 11.4999 38.0318C11.7497 37.9279 11.9762 37.7749 12.1662 37.5814C12.3562 37.3879 12.5061 37.1578 12.6071 36.9045L18.3815 22.5521L27.2452 26.3091C27.4961 26.4162 27.7649 26.4722 28.036 26.474C28.3072 26.4757 28.5755 26.4232 28.8253 26.3193C29.0751 26.2155 29.3016 26.0624 29.4916 25.8689C29.6816 25.6754 29.8314 25.4454 29.9325 25.192L36.7999 8.13008L38.8702 13.1101C39.0822 13.6201 39.4848 14.0263 39.9896 14.2393C40.4944 14.4524 41.06 14.4549 41.5619 14.2462C42.0638 14.0376 42.4609 13.6349 42.6659 13.1268C42.8709 12.6187 42.867 12.0467 42.655 11.5368L38.6583 1.92275C38.5509 1.67273 38.3963 1.44588 38.2032 1.25502Z" fill="url(#paint1_linear_441_704)"/>
<defs>
<linearGradient id="paint0_linear_441_704" x1="33.9999" y1="11" x2="33.9999" y2="72.9999" gradientUnits="userSpaceOnUse">
<stop stop-color="#C569CF"/>
<stop offset="1" stop-color="#EE609C"/>
</linearGradient>
<linearGradient id="paint1_linear_441_704" x1="18.9295" y1="7.86912" x2="28.5261" y2="30.9539" gradientUnits="userSpaceOnUse">
<stop stop-color="#C569CF"/>
<stop offset="1" stop-color="#EE609C"/>
</linearGradient>
</defs>
</svg>
