<svg width="80" height="80" viewBox="0 0 80 80" fill="none" xmlns="http://www.w3.org/2000/svg">
<path d="M80 40C80 62.0914 62.0914 80 40 80C17.9086 80 0 62.0914 0 40C0 17.9086 17.9086 0 40 0C62.0914 0 80 17.9086 80 40Z" fill="#81D0FF"/>
<path d="M52.1979 19.8766C47.3454 23.1293 44.8606 24.3345 40.9573 25.3369C37.6619 26.1901 35.8916 26.3501 29.7807 26.3501C26.4213 26.3501 24.9816 26.3821 24.6617 26.4781C24.0751 26.6487 23.1899 27.5339 23.0193 28.1204C22.838 28.7496 22.838 41.014 23.0193 41.6432C23.1899 42.2298 24.0751 43.115 24.6617 43.2856C24.9816 43.3816 26.4213 43.4136 29.7807 43.4136C32.3616 43.4136 35.0384 43.4669 35.7423 43.5202C40.0828 43.8935 44.466 45.2266 48.1666 47.3062C48.7852 47.6474 50.6408 48.8312 52.3045 49.9404L55.312 51.9453V34.8818C55.312 25.4969 55.3013 17.8183 55.2906 17.829C55.2693 17.829 53.8829 18.7568 52.1979 19.8766Z" fill="#081933"/>
<path d="M57.0182 34.8812V42.5918L57.7861 42.5065C59.5564 42.3358 61.0921 41.5893 62.4146 40.2776C63.3744 39.3177 63.9396 38.4112 64.3555 37.1421C64.5902 36.4276 64.6328 36.1397 64.6328 34.8812C64.6328 33.6228 64.5902 33.3349 64.3555 32.6203C63.9396 31.3512 63.3744 30.4447 62.4146 29.4849C61.0921 28.1731 59.5564 27.4266 57.7861 27.256L57.0182 27.1707V34.8812Z" fill="#081933"/>
<path d="M19.9585 29.037C19.0093 29.2077 17.7829 29.8902 16.9937 30.6687C14.0929 33.5375 14.9034 38.454 18.5614 40.2136C19.3506 40.5869 20.3211 40.8535 20.9396 40.8535H21.1849V34.8813V28.9091L20.8436 28.9197C20.6517 28.9304 20.2571 28.9731 19.9585 29.037Z" fill="#081933"/>
<path d="M26.3251 52.3932L26.3571 59.6772L26.6024 60.1571C26.9757 60.925 27.4023 61.3729 28.1381 61.7675C28.7567 62.0981 28.8846 62.1301 29.7165 62.1194C30.4844 62.1194 30.7083 62.0768 31.1669 61.8421C31.9667 61.4262 32.308 61.0956 32.7133 60.3491L33.0759 59.6772L33.1079 52.3932L33.1399 45.1199H29.7165H26.2931L26.3251 52.3932Z" fill="#081933"/>
<rect x="16.0243" y="17.8438" width="4.90476" height="60.8476" rx="2.45238" transform="rotate(-45 16.0243 17.8438)" fill="#081933" stroke="#81D0FF" stroke-width="3"/>
</svg>
