<svg width="258" height="311" viewBox="0 0 258 311" fill="none" xmlns="http://www.w3.org/2000/svg">
<path d="M19.1821 310.85C14.0467 310.85 9.21345 308.887 5.58848 305.262C1.96352 301.637 0 296.803 0 291.668C0 286.533 1.96352 281.699 5.58848 278.074L57.9994 225.663C58.6036 225.21 59.2077 224.908 59.8119 224.908C60.5671 224.908 61.1712 225.21 61.6244 225.663L85.1866 249.226C85.6397 249.679 85.9418 250.283 85.9418 250.887C85.9418 251.642 85.6397 252.246 85.1866 252.7L32.6247 305.262C29.1507 308.887 24.3175 310.85 19.1821 310.85Z" fill="#E79738"/>
<path d="M73.8586 264.029L70.3847 267.503L55.8848 253.154C54.9786 252.097 54.9786 250.436 55.8848 249.529C56.9421 248.472 58.4525 248.472 59.5098 249.529L73.8586 264.029ZM62.8327 275.055L59.2077 278.68L44.7079 264.18C43.8016 263.274 43.8016 261.612 44.7079 260.706C45.7651 259.649 47.4266 259.649 48.3328 260.706L62.8327 275.055ZM51.6557 286.232L48.1818 289.706L33.6819 275.357C32.6247 274.3 32.6247 272.789 33.6819 271.732C34.5882 270.826 36.2496 270.826 37.3069 271.732L51.6557 286.232ZM19.1821 310.852C14.0467 310.852 9.21345 308.888 5.58848 305.263C1.96352 301.638 0 296.805 0 291.669C0 286.534 1.96352 281.701 5.58848 278.076L11.479 272.185L38.6663 299.221L32.6247 305.263C29.1507 308.888 24.3175 310.852 19.1821 310.852Z" fill="#E98832"/>
<path d="M90.3217 260.404C89.7176 260.404 88.9624 260.102 88.5093 259.648L51.2023 222.19C50.5982 221.737 50.4471 221.133 50.4471 220.529C50.4471 219.774 50.5982 219.17 51.2023 218.717L73.7073 196.061C74.7646 195.003 76.426 195.003 77.3323 196.061C78.3896 196.967 78.3896 198.628 77.3323 199.686L111.165 233.518C112.223 232.461 113.733 232.461 114.79 233.518C115.696 234.425 115.696 236.086 114.79 236.992L92.1342 259.648C91.6811 260.102 90.9259 260.404 90.3217 260.404Z" fill="#526174"/>
<path d="M159.346 249.68C133.216 249.68 108.446 239.56 89.8676 220.982C71.2896 202.404 61.0189 177.633 61.0189 151.353C61.0189 125.072 71.2896 100.452 89.8676 81.8741C108.446 63.2961 133.216 53.0254 159.346 53.0254C185.627 53.0254 210.398 63.2961 228.976 81.8741C247.553 100.452 257.824 125.072 257.824 151.353C257.824 177.633 247.553 202.404 228.976 220.982C210.398 239.56 185.627 249.68 159.346 249.68Z" fill="#3F4F65"/>
<path d="M159.346 222.794C140.315 222.794 122.342 215.393 108.899 201.951C95.3054 188.357 87.9044 170.534 87.9044 151.352C87.9044 132.321 95.3054 114.347 108.899 100.905C122.342 87.3111 140.315 79.9102 159.346 79.9102C178.528 79.9102 196.502 87.3111 209.945 100.905C223.538 114.347 230.939 132.321 230.939 151.352C230.939 170.534 223.538 188.357 209.945 201.951C196.502 215.393 178.528 222.794 159.346 222.794Z" fill="#81D0FF"/>
<path d="M123.633 4.25707L154.526 87.7812L126.158 128.895L155.347 128.304L137.738 159.987L188.595 147.9L114.5 274.091" stroke="#E83D3D" stroke-width="22"/>
</svg>
