<svg width="80" height="80" viewBox="0 0 80 80" fill="none" xmlns="http://www.w3.org/2000/svg">
<path d="M80 40C80 62.0914 62.0914 80 40 80C17.9086 80 0 62.0914 0 40C0 17.9086 17.9086 0 40 0C62.0914 0 80 17.9086 80 40Z" fill="#81D0FF"/>
<path d="M57.0133 30.2896C56.8361 29.8629 56.4971 29.5239 56.0704 29.3467C55.8605 29.2572 55.6351 29.2098 55.4069 29.207H46.6768C46.2137 29.207 45.7696 29.391 45.4422 29.7184C45.1147 30.0459 44.9308 30.49 44.9308 30.9531C44.9308 31.4161 45.1147 31.8602 45.4422 32.1877C45.7696 32.5151 46.2137 32.6991 46.6768 32.6991H51.199L41.4387 42.4594L35.6943 36.6975C35.5319 36.5339 35.3388 36.404 35.1261 36.3153C34.9133 36.2267 34.6851 36.181 34.4546 36.181C34.2241 36.181 33.9959 36.2267 33.7831 36.3153C33.5703 36.404 33.3772 36.5339 33.2149 36.6975L22.7387 47.1737C22.575 47.336 22.4451 47.5291 22.3565 47.7419C22.2679 47.9547 22.2222 48.1829 22.2222 48.4134C22.2222 48.6439 22.2679 48.8721 22.3565 49.0849C22.4451 49.2976 22.575 49.4907 22.7387 49.6531C22.901 49.8167 23.0941 49.9466 23.3069 50.0353C23.5197 50.1239 23.7479 50.1695 23.9784 50.1695C24.2089 50.1695 24.4371 50.1239 24.6499 50.0353C24.8626 49.9466 25.0557 49.8167 25.2181 49.6531L34.4546 40.3991L40.199 46.161C40.3613 46.3247 40.5544 46.4545 40.7672 46.5432C40.98 46.6318 41.2082 46.6775 41.4387 46.6775C41.6692 46.6775 41.8974 46.6318 42.1102 46.5432C42.3229 46.4545 42.5161 46.3247 42.6784 46.161L53.6609 35.161V39.6832C53.6609 40.1463 53.8449 40.5904 54.1723 40.9179C54.4998 41.2453 54.9439 41.4293 55.4069 41.4293C55.87 41.4293 56.3141 41.2453 56.6416 40.9179C56.969 40.5904 57.153 40.1463 57.153 39.6832V30.9531C57.1502 30.7249 57.1028 30.4995 57.0133 30.2896Z" fill="#173308"/>
</svg>
