<svg width="80" height="80" viewBox="0 0 80 80" fill="none" xmlns="http://www.w3.org/2000/svg">
<circle cx="40" cy="40" r="40" fill="#FFD6F0"/>
<g clip-path="url(#clip0_413_773)">
<path d="M23.6156 18.5378C21.1701 19.0016 19.2054 20.6966 18.7078 22.8047C18.5307 23.5721 18.5476 24.7357 18.75 25.5453C18.9524 26.3379 19.5258 27.5522 20.0486 28.2521L20.4196 28.7581L20.4534 30.3518C20.4871 31.8106 20.504 31.9962 20.7063 32.5611C21.1533 33.8092 21.9965 34.8801 23.0928 35.5969L23.7083 36.0016L22.4013 36.7099C20.7907 37.5869 20.3016 38.0086 19.8715 38.8855C19.5595 39.5096 19.5511 39.5517 19.5511 40.4709V41.4069L19.998 42.3007L20.4365 43.1861V48.1529V53.1112L20.057 53.3136C19.5511 53.5835 18.9608 54.2328 18.6825 54.823C18.4802 55.2447 18.4549 55.4049 18.4549 56.1891C18.4549 56.9227 18.497 57.1589 18.6572 57.5805C18.9355 58.2719 19.7029 59.0393 20.3943 59.3176C20.8919 59.52 20.9425 59.52 24.4588 59.5621L28.0174 59.6043L27.5957 60.144C27.1151 60.7595 27.0645 61.0547 27.3933 61.3751L27.5957 61.5859H29.8894H32.1746L32.4866 61.2739C32.6553 61.0969 33.2287 60.4897 33.7515 59.9163L34.7128 58.8875H35.5055H36.2897V59.9416C36.2897 61.0884 36.3571 61.3583 36.7029 61.5016C36.8631 61.5606 39.4519 61.5859 45.5655 61.5691L54.2088 61.5438L54.8834 61.3161C55.8026 61.0041 56.5278 60.5572 57.1939 59.891C58.2143 58.8707 58.7793 57.6058 58.8636 56.1217L58.9142 55.3374L59.3358 55.1182C59.8924 54.8399 60.6597 54.1063 60.938 53.5919C61.2078 53.0944 61.4186 52.2595 61.4186 51.6693C61.4186 51.1296 61.1572 50.0924 60.879 49.5443C60.7609 49.3082 60.4658 48.8612 60.2297 48.5492C59.3948 47.4446 59.2599 46.9723 59.5635 46.2556C59.7743 45.7665 60.5332 44.9991 61.0813 44.7209C61.6295 44.4426 61.7559 43.9535 61.3765 43.5825C61.0645 43.262 60.7693 43.3126 60.0441 43.7933C59.243 44.3245 58.6865 44.9401 58.3492 45.6484C58.13 46.1207 58.0878 46.2893 58.0878 46.8712C58.0962 47.6891 58.3155 48.2372 59.0154 49.1564C59.2683 49.4852 59.5972 50.0165 59.749 50.3369C59.9935 50.8513 60.0273 51.0031 60.0273 51.6355C60.0273 52.2511 59.9935 52.4198 59.7912 52.833C59.6562 53.1028 59.4117 53.4317 59.243 53.575L58.931 53.828L58.8805 52.209C58.8299 50.3707 58.7371 49.9575 58.1215 48.9203C57.7083 48.2204 56.5531 46.9892 55.6424 46.2809C53.6776 44.7462 51.5863 43.5909 45.245 40.5383L43.7778 39.8384L43.9549 39.5939C44.2163 39.2228 44.7981 37.9833 44.8571 37.6628C44.8909 37.4689 44.8656 37.3171 44.7728 37.1737C44.5873 36.8955 40.6999 34.9391 40.3373 34.9391C40.0169 34.9391 39.8482 35.1078 39.4519 35.8161C39.2832 36.1197 39.1314 36.3726 39.1146 36.3726C39.1061 36.3726 38.9628 36.3221 38.811 36.2546C38.5327 36.1365 38.5327 36.1365 37.875 33.8345C37.1835 31.3806 37.1076 31.2288 36.627 31.2288C36.5005 31.2288 36.315 31.2963 36.2222 31.3722C36.1042 31.4818 33.2202 34.9222 33.0431 35.1752C33.0263 35.1921 32.8492 35.1584 32.6384 35.0993L32.2505 35.0066L32.6384 34.5344C32.8576 34.2729 33.1696 33.7501 33.3467 33.3791C33.8189 32.3841 33.9286 31.701 33.9286 29.7447V28.0835L34.3671 27.4004C35.1934 26.1102 35.6151 24.8369 35.6151 23.6311C35.6151 21.2447 34.0382 19.4148 31.3145 18.6474C30.7242 18.4788 30.4544 18.4619 27.4777 18.4451C24.9648 18.4282 24.13 18.4451 23.6156 18.5378ZM28.7004 26.5066C28.9365 26.5066 29.0967 26.3885 29.7966 25.7055L30.6146 24.896L31.6012 26.4644L32.5794 28.0413V29.6941C32.5794 32.0805 32.3264 32.9069 31.2976 33.9778C30.7158 34.5849 30.0496 34.9644 29.2401 35.1584C28.3378 35.3692 25.6478 35.2933 24.9563 35.0403C23.4301 34.4838 22.2495 33.2273 21.9206 31.8191C21.8279 31.4565 21.7857 30.8409 21.7857 29.9892V28.7159L22.8904 26.8945L24.0035 25.0646L24.4504 25.7476C25.1672 26.8101 25.496 26.7933 26.2634 25.6549L26.7778 24.8875L27.6042 25.6971C28.3041 26.3885 28.4643 26.5066 28.7004 26.5066ZM36.8294 35.0656C37.0908 35.9932 37.3437 36.8364 37.3859 36.9461C37.4365 37.0641 37.6895 37.2328 38.0774 37.4098L38.6761 37.6881L38.6845 38.4471C38.693 39.1217 38.7182 39.2566 38.9712 39.7625C39.2748 40.3781 39.7133 40.8082 40.3373 41.0864L40.7083 41.2467L40.371 41.2972C39.5446 41.4322 39.0555 41.5587 38.3135 41.8285C37.875 41.9971 36.5511 42.4019 35.3705 42.7392L33.2287 43.3548L29.7207 42.7729C27.7897 42.4525 26.1285 42.1742 26.0273 42.1489C25.8418 42.1068 25.8333 42.0815 25.8333 40.9346V39.771L29.746 38.1435L33.6587 36.516L34.9826 34.9222C35.7163 34.0453 36.315 33.3369 36.3318 33.3538C36.3403 33.3707 36.568 34.138 36.8294 35.0656ZM43.0526 38.4386C42.6562 39.1975 41.9901 39.8806 41.5684 39.9649C40.9529 40.0745 40.1518 39.4927 40.0337 38.8434C39.9494 38.4049 40.1012 37.5954 40.3795 36.9798L40.6071 36.4654L41.9901 37.1569L43.3646 37.8399L43.0526 38.4386ZM46.9315 42.8573C52.3621 45.5557 54.3353 46.7447 55.8616 48.2541C56.6374 49.0215 57.1433 49.7888 57.371 50.5224C57.5228 51.0115 57.5397 51.3067 57.5397 53.6931C57.5397 56.6107 57.4891 57.0071 57.0084 57.9094C56.6711 58.5671 55.87 59.3682 55.2123 59.7055C54.192 60.2452 54.4281 60.2367 45.6329 60.2367H37.6389V59.579C37.6389 58.7442 37.9003 58.1539 38.4231 57.8082L38.7688 57.5805L43.9464 57.5383L49.124 57.4962L49.2842 57.2938C49.3685 57.1842 49.4444 56.9902 49.4444 56.8469C49.4444 56.3662 49.7143 55.2953 49.9841 54.7134C50.3046 54.0219 50.8948 53.2293 51.3755 52.833C52.1344 52.2174 53.3993 51.6861 54.563 51.5091L54.9172 51.45L54.875 51.0621C54.7654 50.0671 54.7822 50.1093 54.4365 50.1683C51.9911 50.5815 50.313 51.5934 49.1999 53.3136C48.8036 53.9292 48.4072 54.9074 48.2555 55.6579L48.1458 56.1891H47.2267H46.3075L43.7019 54.1653C42.2683 53.0438 41.0962 52.1078 41.0962 52.074C41.0962 52.0487 41.2733 51.8464 41.4841 51.6271L41.8636 51.2392L41.3408 50.7839L40.8264 50.3369L40.5144 50.6827C40.3457 50.8766 38.2798 53.1112 35.9102 55.641L31.6181 60.2367H30.4544C29.8135 60.2367 29.2907 60.2199 29.2907 60.203C29.2907 60.1861 31.247 57.6564 33.6419 54.5785L37.993 48.9793L37.934 48.642C37.8244 47.9505 37.7654 48.0095 38.7773 47.6638C39.2917 47.4952 40.0422 47.2506 40.4469 47.1241C41.754 46.7194 42.7827 45.9436 43.1959 45.0582C43.373 44.6787 43.4152 44.4679 43.4152 43.9113C43.4152 43.2958 43.3814 43.1608 43.12 42.6465C42.808 42.0309 42.3021 41.5924 41.7371 41.449L41.4757 41.3731L41.9057 41.2719C42.1334 41.2129 42.437 41.0949 42.5804 41.0105C42.7153 40.9178 42.8333 40.8419 42.8418 40.8419C42.8502 40.8419 44.6885 41.7526 46.9315 42.8573ZM41.4588 42.7729C41.7202 42.8741 41.9985 43.2873 42.0744 43.6921C42.1587 44.1306 41.9648 44.6365 41.5769 45.0076C41.248 45.3196 40.1518 45.9014 39.8819 45.9014C39.7976 45.9014 39.629 45.4882 39.317 44.5691C39.0808 43.8439 38.8616 43.203 38.8447 43.144C38.8194 43.0849 38.9881 42.9922 39.2832 42.9079C40.2783 42.6127 40.936 42.579 41.4588 42.7729ZM36.5427 48.5745C36.5427 48.6251 35.244 50.3285 34.1141 51.762L33.9201 51.9981L33.9454 50.6658L33.9707 49.3335L35.1091 48.9287C36.2306 48.5324 36.5427 48.4565 36.5427 48.5745ZM40.4216 53.322L40.6324 53.4907H40.2361C39.8229 53.4907 39.7555 53.4317 39.9325 53.2546C40.0759 53.1112 40.1771 53.1281 40.4216 53.322Z" fill="#330808"/>
<path d="M24.442 27.9321C24.0625 28.1008 23.8517 28.4381 23.8517 28.8766C23.8517 29.2307 23.8938 29.3235 24.13 29.5596C24.3661 29.7957 24.4588 29.8379 24.8214 29.8379C25.184 29.8379 25.2768 29.7957 25.5129 29.5596C25.749 29.3235 25.7912 29.2307 25.7912 28.8681C25.7912 28.514 25.749 28.4128 25.5298 28.1851C25.2515 27.9068 24.754 27.7972 24.442 27.9321Z" fill="#330808"/>
<path d="M29.8388 27.9321C29.4593 28.1008 29.2485 28.4381 29.2485 28.8766C29.2485 29.2307 29.2907 29.3235 29.5268 29.5596C29.7629 29.7957 29.8556 29.8379 30.2182 29.8379C30.5808 29.8379 30.6736 29.7957 30.9097 29.5596C31.1458 29.3235 31.188 29.2307 31.188 28.8681C31.188 28.514 31.1458 28.4128 30.9266 28.1851C30.6483 27.9068 30.1508 27.7972 29.8388 27.9321Z" fill="#330808"/>
<path d="M25.749 31.9706C25.749 32.232 26.0441 32.9235 26.2634 33.1933C26.6681 33.6824 27.1151 33.8763 27.8234 33.8848C28.3378 33.8848 28.4727 33.851 28.8353 33.6318C29.316 33.3367 29.7039 32.7548 29.7713 32.2489L29.8219 31.9031H29.1304C28.5149 31.9031 28.4474 31.92 28.4474 32.0633C28.4474 32.2657 28.0679 32.5777 27.8234 32.5777C27.5789 32.5777 27.2753 32.35 27.1825 32.1055C27.1066 31.9116 27.0645 31.9031 26.4236 31.9031C26.0526 31.9031 25.749 31.9368 25.749 31.9706Z" fill="#330808"/>
<path d="M32.5794 38.6496V39.3242H33.254H33.9286V38.6496V37.975H33.254H32.5794V38.6496Z" fill="#330808"/>
</g>
<defs>
<clipPath id="clip0_413_773">
<rect width="43.1746" height="43.1746" fill="white" transform="translate(18.4127 18.4121)"/>
</clipPath>
</defs>
</svg>
