<svg width="139" height="121" viewBox="0 0 139 121" fill="none" xmlns="http://www.w3.org/2000/svg">
<path d="M138.5 69.5V120.5H0.5V69.5C0.5 31.3924 31.3924 0.5 69.5 0.5C107.608 0.5 138.5 31.3924 138.5 69.5Z" stroke="#FFD439"/>
<path d="M70.0607 48.9393C69.4749 48.3536 68.5251 48.3536 67.9393 48.9393L58.3934 58.4853C57.8076 59.0711 57.8076 60.0208 58.3934 60.6066C58.9792 61.1924 59.9289 61.1924 60.5147 60.6066L69 52.1213L77.4853 60.6066C78.0711 61.1924 79.0208 61.1924 79.6066 60.6066C80.1924 60.0208 80.1924 59.0711 79.6066 58.4853L70.0607 48.9393ZM70.5 99L70.5 50L67.5 50L67.5 99L70.5 99Z" fill="#FFD439"/>
</svg>
